<svg width="72" height="72" viewBox="0 0 72 72" fill="none" xmlns="http://www.w3.org/2000/svg">
<path d="M68 72H4C1.8 72 0 70.2 0 68V4C0 1.8 1.8 0 4 0H68C70.2 0 72 1.8 72 4V68C72 70.2 70.2 72 68 72Z" fill="url(#paint0_linear)"/>
<path opacity="0.05" d="M62.0399 28.486V27C62.0399 25.346 60.6939 24 59.0399 24H53.1859C51.5319 24 50.1859 25.346 50.1859 27V28.058C49.0259 25.88 46.5919 24 41.6179 24H35.5599C33.9059 24 32.5599 25.346 32.5599 27V42.458L26.7019 25.99C26.2779 24.8 25.1419 24 23.8779 24H19.9399C18.6859 24 17.5539 24.792 17.1219 25.974L10.4499 44.302C10.1419 45.146 10.2639 46.088 10.7799 46.824C11.2939 47.56 12.1379 48 13.0379 48H16.1119C17.4279 48 18.5779 47.158 18.9719 45.906L19.7179 43.552H23.9059L24.6619 45.918C25.0599 47.162 26.2079 48 27.5179 48H30.6319C31.5239 48 32.3639 47.564 32.8799 46.836C32.9379 46.754 32.9719 46.662 33.0199 46.576C33.5499 47.428 34.4859 48 35.5599 48H38.0639C39.7179 48 41.0639 46.654 41.0639 45V41.11H41.2119C44.1099 41.11 46.4979 40.32 48.3099 38.766C50.2099 37.134 51.1759 34.982 51.1759 32.374C51.1759 31.812 51.1339 31.18 51.0199 30.524C51.2639 30.784 51.5379 31.016 51.8599 31.176V40.822C50.8699 41.312 50.1859 42.334 50.1859 43.512V45C50.1859 46.654 51.5319 48 53.1859 48H59.0399C60.6939 48 62.0399 46.654 62.0399 45V43.514C62.0399 42.336 61.3559 41.314 60.3659 40.824V31.178C61.3559 30.686 62.0399 29.666 62.0399 28.486ZM42.4339 32.542C42.4339 33.202 42.4339 33.648 41.0639 33.69V31.462C42.4339 31.502 42.4339 31.922 42.4339 32.542Z" fill="black"/>
<path opacity="0.07" d="M25.762 26.328C25.478 25.534 24.72 25 23.88 25H19.942C19.106 25 18.35 25.528 18.064 26.316L11.392 44.646C11.196 45.184 11.274 45.782 11.6 46.252C11.928 46.72 12.466 47 13.038 47H16.112C16.988 47 17.756 46.438 18.018 45.604L18.984 42.552H24.634L25.61 45.612C25.878 46.444 26.644 47.002 27.516 47.002H30.63C31.198 47.002 31.734 46.724 32.062 46.26C32.39 45.796 32.472 45.198 32.28 44.662L25.762 26.328ZM22.962 37.092H20.586L21.778 33.38L22.962 37.092Z" fill="black"/>
<path opacity="0.07" d="M41.6181 25H35.5601C34.4561 25 33.5601 25.898 33.5601 27V45C33.5601 46.102 34.4561 47 35.5601 47H38.0641C39.1681 47 40.0641 46.102 40.0641 45V40.11H41.2121C43.8641 40.11 46.0321 39.402 47.6601 38.006C49.3301 36.572 50.1761 34.676 50.1761 32.374C50.1761 29.01 48.6921 25 41.6181 25ZM43.4341 32.542C43.4341 33.66 43.1201 34.694 40.8361 34.694H40.0641V30.46H40.8361C43.1201 30.458 43.4341 31.46 43.4341 32.542Z" fill="black"/>
<path opacity="0.07" d="M61.04 28.486V27C61.04 25.898 60.144 25 59.04 25H53.186C52.082 25 51.186 25.898 51.186 27V28.486C51.186 29.478 51.912 30.304 52.86 30.46V41.54C51.912 41.696 51.186 42.522 51.186 43.514V45C51.186 46.102 52.082 47 53.186 47H59.04C60.144 47 61.04 46.102 61.04 45V43.514C61.04 42.522 60.314 41.696 59.366 41.54V30.46C60.312 30.304 61.04 29.478 61.04 28.486Z" fill="black"/>
<path d="M30.6299 46H27.5159C27.0819 46 26.6959 45.718 26.5639 45.304L25.3639 41.55H18.2519L17.0639 45.3C16.9319 45.718 16.5459 46 16.1099 46H13.0359C12.5139 46 12.1499 45.48 12.3279 44.99L19.0019 26.658C19.1459 26.262 19.5219 26 19.9419 26H23.8779C24.3019 26 24.6779 26.266 24.8199 26.664L31.3399 44.994C31.5139 45.486 31.1499 46 30.6299 46ZM24.3319 38.092L22.1839 31.37C22.0259 30.868 21.9139 30.268 21.8499 29.57H21.7379C21.6919 30.156 21.5759 30.736 21.3899 31.314L19.2139 38.092H24.3319Z" fill="white"/>
<path d="M39.0641 39.11V45C39.0641 45.552 38.6161 46 38.0641 46H35.5601C35.0081 46 34.5601 45.552 34.5601 45V27C34.5601 26.448 35.0081 26 35.5601 26H41.6181C46.6581 26 49.1781 28.124 49.1781 32.374C49.1781 34.382 48.4561 36.008 47.0101 37.248C45.5641 38.488 43.6321 39.11 41.2161 39.11H39.0641ZM39.0641 29.458V35.692H40.8361C43.2341 35.692 44.4341 34.642 44.4341 32.54C44.4341 30.486 43.2341 29.458 40.8361 29.458H39.0641Z" fill="white"/>
<path d="M60.038 27V28.486C60.038 29.038 59.59 29.486 59.038 29.486H58.364V42.512H59.038C59.59 42.512 60.038 42.96 60.038 43.512V45C60.038 45.552 59.59 46 59.038 46H53.186C52.634 46 52.186 45.552 52.186 45V43.514C52.186 42.962 52.634 42.514 53.186 42.514H53.86V29.488H53.186C52.634 29.488 52.186 29.04 52.186 28.488V27C52.186 26.448 52.634 26 53.186 26H59.038C59.59 26 60.038 26.448 60.038 27Z" fill="white"/>
<defs>
<linearGradient id="paint0_linear" x1="36" y1="0.242" x2="36" y2="72.078" gradientUnits="userSpaceOnUse">
<stop stop-color="#33BEF0"/>
<stop offset="1" stop-color="#0A85D9"/>
</linearGradient>
</defs>
</svg>
