<svg width="96" height="73" viewBox="0 0 96 73" fill="none" xmlns="http://www.w3.org/2000/svg">
<path d="M96 38C96 51.26 85.26 62 72 62C68.4 62 22.68 62 19 62C8.5 62 0 53.5 0 43C0 33.92 6.36 26.32 14.9 24.44C18.3 10.42 30.92 0 46 0C57.02 0 66.72 5.56 72.48 14.02C85.52 14.26 96 24.9 96 38Z" fill="url(#paint0_linear)"/>
<path opacity="0.05" d="M64.4798 58.68L61.4998 62H34.4998L31.5198 58.68C30.4398 57.48 30.1798 55.84 30.8398 54.38C31.4798 52.9 32.8798 52 34.4998 52H39.9998V30C39.9998 27.8 41.7998 26 43.9998 26H51.9998C54.1998 26 55.9998 27.8 55.9998 30V52H61.4998C63.1198 52 64.5198 52.9 65.1598 54.38C65.8198 55.84 65.5598 57.48 64.4798 58.68Z" fill="black"/>
<path opacity="0.07" d="M63.7399 58L60.1399 62H35.8599L32.2599 58C31.4599 57.12 31.2599 55.88 31.7599 54.78C32.2399 53.68 33.2799 53 34.4999 53H40.9999V30C40.9999 28.34 42.3399 27 43.9999 27H51.9999C53.6599 27 54.9999 28.34 54.9999 30V53H61.4999C62.7199 53 63.7599 53.68 64.2399 54.78C64.7399 55.88 64.5399 57.12 63.7399 58Z" fill="black"/>
<path d="M61.5097 54H53.9997V30C53.9997 28.896 53.1037 28 51.9997 28H43.9997C42.8957 28 41.9997 28.896 41.9997 30V54H34.4897C32.7577 54 31.8457 56.05 33.0037 57.338L45.0257 70.696C46.6137 72.462 49.3837 72.462 50.9717 70.696L62.9937 57.338C64.1537 56.05 63.2397 54 61.5097 54Z" fill="url(#paint1_linear)"/>
<defs>
<linearGradient id="paint0_linear" x1="24.95" y1="-4.012" x2="56.81" y2="56.662" gradientUnits="userSpaceOnUse">
<stop stop-color="#FCFCFC"/>
<stop offset="0.95" stop-color="#C3C9CD"/>
</linearGradient>
<linearGradient id="paint1_linear" x1="35.1717" y1="28.486" x2="58.2197" y2="69.932" gradientUnits="userSpaceOnUse">
<stop stop-color="#2AA4F4"/>
<stop offset="1" stop-color="#007AD9"/>
</linearGradient>
</defs>
</svg>
