<svg width="64" height="64" viewBox="0 0 64 64" fill="none" xmlns="http://www.w3.org/2000/svg">
<path d="M64 32C64 49.672 49.672 64 32 64C14.328 64 0 49.672 0 32C0 14.328 14.328 0 32 0C49.672 0 64 14.328 64 32Z" fill="url(#paint0_linear)"/>
<path d="M31.632 48.8128C32 49.9056 31.632 51.3664 31.2656 52.1008C30.9056 53.1952 30.5392 54.656 29.8048 55.3824C29.0784 56.1168 28.344 56.4848 27.6176 56.8496C26.5232 57.576 25.7904 59.0368 24.696 60.1376C24.696 60.4976 23.2352 62.3552 22.8688 62.3552C22.7328 62.4272 22.6032 62.4928 22.472 62.5584C20.3152 61.8864 18.2672 60.9776 16.3328 59.888C16.32 59.8496 16.3056 59.8128 16.2912 59.7728C16.2912 59.4064 15.9312 57.2128 15.9312 56.8512C15.5648 55.752 15.1968 54.2912 14.832 53.1968C14.1056 51.3696 12.6448 49.5424 12.6448 47.3552C12.6448 45.5264 13.0048 43.7072 11.9104 42.24C10.4496 40.4128 7.528 40.4128 6.0672 39.3184C3.872 37.8576 1.6848 35.6704 0.5904 33.4752C0.3296 33.0432 0.1536 32.6416 0.00960007 32.2464C0.0112001 32.1616 0 32.0832 0 32C0 23.4304 3.3888 15.664 8.8768 9.92C11.8784 7.4928 17.7328 6.376 21.2864 7.448C22.3808 7.808 26.3184 10.1632 26.3184 11.2576C26.3184 11.624 26.3184 11.624 25.952 11.992C25.592 12.3584 25.224 12.3584 24.8576 12.3584C23.7632 12.3584 20.3152 11.5632 19.9472 11.1952C17.752 10.4624 14.4704 15.2112 14.1056 16.672C13.7392 17.7712 13.7392 20.3264 15.5664 20.6928C16.6608 20.6928 21.6688 16.4432 22.4032 16.0768C25.3248 15.7168 27.5824 18.2208 28.3168 20.7824C29.4112 23.704 23.2368 26.528 21.0416 27.2624C20.3152 27.6288 19.9488 26.896 19.2144 27.2624C17.3936 27.9888 16.3168 29.6208 16.0992 31.8048C15.9152 33.6528 15.7328 35.4544 15.3728 37.2816C15.0064 37.2816 14.256 37.2768 14.256 36.9104V36.184C14.256 35.0816 13.8896 33.6224 12.7952 33.256C12.4288 32.8976 11.912 33.4736 11.5456 33.4736C10.4512 33.4736 9.3584 32.3744 8.264 33.1072C7.5296 33.8336 6.8032 34.9344 6.8032 36.0288C6.8032 36.3968 6.8032 36.7632 7.1632 37.1232C7.8976 37.4896 8.624 36.7632 9.3584 37.1232C10.0848 37.1232 10.0848 37.8576 10.0848 38.2224C10.8192 39.3168 11.5456 40.7776 12.6448 41.144H19.9472C21.0416 41.5104 22.8688 41.8704 23.6016 42.6048C23.96 43.3312 23.96 44.0656 24.328 44.792C26.1552 46.6192 28.3424 46.6192 30.536 47.352C31.2656 47.7184 31.6336 48.0784 31.632 48.8128ZM52.0384 7.072C51.8768 7.12 51.7152 7.1632 51.5568 7.232C50.4624 7.5984 47.6064 12.872 46.8752 13.9648C46.5088 14.3312 46.1488 15.0592 46.5088 15.4256C46.5088 15.792 46.8752 15.792 47.2432 15.792C47.9696 16.1584 48.0688 16.3104 48.8016 16.6704C49.168 16.6704 49.528 17.0368 49.168 17.4048C49.168 17.4048 49.168 17.7712 48.8016 17.7712C46.9744 19.5984 45.1472 21.0592 43.3248 22.88C42.9568 23.2496 42.712 23.984 42.712 24.3424C42.712 24.7088 42.9568 24.7088 42.9568 25.0768C42.9568 25.4448 42.5904 25.4432 42.2224 25.8032C41.496 26.1696 40.7616 26.5376 40.3952 26.9024C40.0352 27.6288 40.3952 28.7296 40.0352 29.4576C39.6672 31.2848 38.568 32.7456 37.84 34.5728C37.1056 35.6672 36.4512 36.76 35.7168 37.8608C35.7168 39.3216 35.3504 40.416 36.0832 41.5088C37.9104 44.0688 41.568 41.6192 44.1232 42.712C44.8496 43.0784 45.4752 43.1456 45.9504 43.8064C46.8576 45.0656 46.968 47.7184 47.336 48.8192C47.696 50.28 48.0624 51.7408 48.7968 53.2016C49.16 55.0128 49.8768 56.8224 50.2464 58.2688C58.5536 52.4864 64 42.8848 64 32C64 21.9184 59.3264 12.9376 52.0384 7.072ZM39.3728 8.5712C40.4608 7.872 41.1888 6.4784 41.5536 5.4336C41.9104 4.7328 43.0048 3.3408 42.6416 2.296C42.3584 1.752 41.2064 1.4256 40.3648 1.1424C37.6928 0.4208 34.8992 0 32 0C31.264 0 30.5424 0.0607996 29.8192 0.1104C29.2096 0.3216 28.6848 0.68 28.4864 1.2528C28.1216 2.9952 29.5744 2.6448 31.024 2.9952C31.024 2.9952 31.3888 5.7824 31.3888 6.1328C31.7536 7.8752 30.6608 8.92 30.6608 10.6576C30.6608 11.7072 30.6608 13.4496 31.3888 14.1456H31.7536C32.1184 14.1456 32.4752 13.7952 33.2048 13.4528C34.2928 12.752 35.3856 11.7104 36.472 11.0096C37.5584 10.3152 38.6448 9.2656 39.3728 8.5712Z" fill="url(#paint1_linear)"/>
<defs>
<linearGradient id="paint0_linear" x1="9.3728" y1="9.3728" x2="55.0192" y2="55.0192" gradientUnits="userSpaceOnUse">
<stop stop-color="#00BFFE"/>
<stop offset="1" stop-color="#1D55C4"/>
</linearGradient>
<linearGradient id="paint1_linear" x1="9.928" y1="9.088" x2="55.4" y2="54.56" gradientUnits="userSpaceOnUse">
<stop stop-color="#84E1FE"/>
<stop offset="1" stop-color="#167CF7"/>
</linearGradient>
</defs>
</svg>
