<svg width="93" height="73" viewBox="0 0 93 73" fill="none" xmlns="http://www.w3.org/2000/svg">
<path d="M0 60V14H80V60C80 62.2 78.2 64 76 64H4C1.8 64 0 62.2 0 60Z" fill="url(#paint0_linear)"/>
<path d="M80 4V14H0V4C0 1.8 1.8 0 4 0H76C78.2 0 80 1.8 80 4Z" fill="url(#paint1_linear)"/>
<path d="M61 10C62.6569 10 64 8.65685 64 7C64 5.34315 62.6569 4 61 4C59.3431 4 58 5.34315 58 7C58 8.65685 59.3431 10 61 10Z" fill="url(#paint2_linear)"/>
<path d="M51 10C52.6569 10 54 8.65685 54 7C54 5.34315 52.6569 4 51 4C49.3431 4 48 5.34315 48 7C48 8.65685 49.3431 10 51 10Z" fill="url(#paint3_linear)"/>
<path d="M71 10C72.6569 10 74 8.65685 74 7C74 5.34315 72.6569 4 71 4C69.3431 4 68 5.34315 68 7C68 8.65685 69.3431 10 71 10Z" fill="url(#paint4_linear)"/>
<g filter="url(#filter0_d)">
<path d="M92 58C92 65.7315 85.7315 72 78 72C70.2685 72 64 65.7315 64 58C64 50.2685 70.2685 44 78 44C85.7315 44 92 50.2685 92 58Z" fill="url(#paint5_linear)"/>
<path opacity="0.05" d="M84.3106 51.7554C84.1027 51.5447 83.766 51.5335 83.5567 51.7428L81.6002 53.6993C81.4098 53.8897 81.4119 54.1886 81.5855 54.3944C83.8654 57.0999 82.6838 61.0703 80.2121 62.4682C79.3084 62.9792 76.6673 63.0688 75.2239 62.0692C73.6496 60.9793 71.67 57.5451 73.7105 55.1098L75.2134 56.6127C75.7251 57.1251 76.6001 56.7625 76.6001 56.038V50.3001C76.6001 49.9137 76.2865 49.6001 75.9001 49.6001H69.9725C69.3187 49.6001 68.9911 50.3911 69.4531 50.8538L71.0281 52.4288C68.1 55.7223 68.1966 60.8834 71.2899 64.1433C74.4749 67.4991 80.371 68.0892 83.6456 65.1478C87.1141 62.0321 88.9257 56.4258 84.3106 51.7554Z" fill="black"/>
<path opacity="0.07" d="M84.3106 52.1053C84.1083 51.8897 83.766 51.8834 83.5567 52.0927L81.9558 53.6936C81.7619 53.8875 81.7647 54.1913 81.9404 54.4006C84.1167 56.9906 83.3152 60.8917 80.6482 62.5724C79.2699 63.4404 76.7114 63.4922 75.0678 62.3729C72.8411 60.8595 71.6525 57.2146 73.7091 54.7597L75.135 56.1856C75.5459 56.5965 76.2494 56.3053 76.2494 55.7243V50.65C76.2494 50.2636 75.9358 49.95 75.5494 49.95H70.3806C69.8339 49.95 69.5602 50.6108 69.9466 50.9972L71.3774 52.428C68.4129 55.7628 68.5529 60.9574 71.7939 64.1558C74.9726 67.3022 80.448 67.5977 83.6722 64.6591C87.0966 61.5385 88.0934 56.1394 84.3106 52.1053Z" fill="black"/>
<path d="M81.0865 62.6774C79.2427 63.9171 76.7577 63.9171 74.9146 62.6774C71.8885 60.6425 71.5973 56.4838 74.041 54.0401L72.0614 52.0605C68.7084 55.4135 68.7882 60.9183 72.3001 64.1691C75.4725 67.1056 80.5279 67.1063 83.701 64.1705C87.0792 61.045 87.2829 55.8328 84.3121 52.4553C84.1168 52.2334 83.7675 52.2334 83.5582 52.4427L82.3122 53.688C82.1148 53.8854 82.1176 54.1941 82.2968 54.4076C84.3688 56.8828 83.9656 60.7412 81.0865 62.6774Z" fill="white"/>
<path d="M75.2001 50.3H70.7901C70.3512 50.3 70.1314 50.8306 70.4415 51.1414L75.0587 55.7586C75.3695 56.0694 75.9001 55.8489 75.9001 55.41V51C75.9001 50.6136 75.5865 50.3 75.2001 50.3Z" fill="white"/>
</g>
<path d="M36.9067 28.4951L32.2803 46H27.9102L25.0049 34.7695C24.8503 34.1836 24.7567 33.5285 24.7241 32.8042H24.6753C24.6021 33.6017 24.4963 34.2568 24.3579 34.7695L21.3794 46H16.8262L12.2241 28.4951H16.5332L18.999 40.1528C19.1048 40.6493 19.1821 41.3166 19.231 42.1548H19.3042C19.3368 41.5282 19.4548 40.8446 19.6582 40.104L22.832 28.4951H27.0557L29.9243 40.2505C30.0301 40.6818 30.1237 41.3084 30.2051 42.1304H30.2539C30.2865 41.4875 30.3719 40.8364 30.5103 40.1772L32.9272 28.4951H36.9067ZM44.3213 39.9697V46H40.3784V28.4951H46.5552C50.966 28.4951 53.1714 30.3547 53.1714 34.0737C53.1714 35.8315 52.5366 37.2557 51.2671 38.3462C50.0057 39.4285 48.3171 39.9697 46.2012 39.9697H44.3213ZM44.3213 31.5225V36.979H45.8716C47.9712 36.979 49.021 36.0594 49.021 34.2202C49.021 32.4217 47.9712 31.5225 45.8716 31.5225H44.3213ZM67.1045 31.7056H60.9277V36.0024H66.604V39.2007H60.9277V46H56.9849V28.4951H67.1045V31.7056Z" fill="#184F85"/>
<defs>
<filter id="filter0_d" x="63" y="43" width="30" height="30" filterUnits="userSpaceOnUse" color-interpolation-filters="sRGB">
<feFlood flood-opacity="0" result="BackgroundImageFix"/>
<feColorMatrix in="SourceAlpha" type="matrix" values="0 0 0 0 0 0 0 0 0 0 0 0 0 0 0 0 0 0 127 0"/>
<feOffset/>
<feGaussianBlur stdDeviation="0.5"/>
<feColorMatrix type="matrix" values="0 0 0 0 0 0 0 0 0 0 0 0 0 0 0 0 0 0 0.25 0"/>
<feBlend mode="normal" in2="BackgroundImageFix" result="effect1_dropShadow"/>
<feBlend mode="normal" in="SourceGraphic" in2="effect1_dropShadow" result="shape"/>
</filter>
<linearGradient id="paint0_linear" x1="56" y1="10.5" x2="11" y2="64" gradientUnits="userSpaceOnUse">
<stop stop-color="#7DD8F3"/>
<stop offset="1" stop-color="#2D8CA9"/>
</linearGradient>
<linearGradient id="paint1_linear" x1="1.228" y1="-0.518001" x2="77.872" y2="15.066" gradientUnits="userSpaceOnUse">
<stop stop-color="#0077D2"/>
<stop offset="1" stop-color="#0B59A2"/>
</linearGradient>
<linearGradient id="paint2_linear" x1="59.502" y1="4.832" x2="62.064" y2="8.538" gradientUnits="userSpaceOnUse">
<stop stop-color="#75DAFF"/>
<stop offset="1" stop-color="#49BEF1"/>
</linearGradient>
<linearGradient id="paint3_linear" x1="49.502" y1="4.832" x2="52.064" y2="8.538" gradientUnits="userSpaceOnUse">
<stop stop-color="#75DAFF"/>
<stop offset="1" stop-color="#49BEF1"/>
</linearGradient>
<linearGradient id="paint4_linear" x1="69.502" y1="4.832" x2="72.064" y2="8.538" gradientUnits="userSpaceOnUse">
<stop stop-color="#75DAFF"/>
<stop offset="1" stop-color="#49BEF1"/>
</linearGradient>
<linearGradient id="paint5_linear" x1="68.1006" y1="48.1006" x2="87.8994" y2="67.8994" gradientUnits="userSpaceOnUse">
<stop stop-color="#05ACB3"/>
<stop offset="1" stop-color="#038387"/>
</linearGradient>
</defs>
</svg>
