<svg width="84" height="78" viewBox="0 0 84 78" fill="none" xmlns="http://www.w3.org/2000/svg">
<path d="M82 6H2V62H82V6Z" fill="url(#paint0_linear)"/>
<path d="M40 62H44V74H40V62Z" fill="#64717C"/>
<path d="M82 8H2C0.896 8 0 7.104 0 6V2C0 0.896 0.896 0 2 0H82C83.104 0 84 0.896 84 2V6C84 7.104 83.104 8 82 8Z" fill="url(#paint1_linear)"/>
<path d="M38 74C38 76.208 39.792 78 42 78C44.208 78 46 76.208 46 74C46 71.792 44.208 70 42 70C39.792 70 38 71.792 38 74Z" fill="#ABB4BE"/>
<path d="M82 60H2C0.896 60 0 60.896 0 62C0 63.104 0.896 64 2 64H82C83.104 64 84 63.104 84 62C84 60.896 83.104 60 82 60Z" fill="url(#paint2_linear)"/>
<path d="M12.3092 40.18C11.8559 40.18 11.5092 40.0533 11.2692 39.8C11.0292 39.5467 10.9092 39.1933 10.9092 38.74V27.16C10.9092 26.6933 11.0359 26.34 11.2892 26.1C11.5426 25.8467 11.9026 25.72 12.3692 25.72C12.7692 25.72 13.0826 25.8 13.3092 25.96C13.5492 26.12 13.7692 26.38 13.9692 26.74L18.2492 34.56L22.5292 26.74C22.7292 26.38 22.9426 26.12 23.1692 25.96C23.4092 25.8 23.7226 25.72 24.1092 25.72C24.5626 25.72 24.9092 25.8467 25.1492 26.1C25.4026 26.34 25.5292 26.6933 25.5292 27.16V38.74C25.5292 39.7 25.0626 40.18 24.1292 40.18C23.1826 40.18 22.7092 39.7 22.7092 38.74V31.4L19.4292 37.3C19.2692 37.5533 19.0959 37.7467 18.9092 37.88C18.7359 38 18.5026 38.06 18.2092 38.06C17.9159 38.06 17.6759 38 17.4892 37.88C17.3026 37.7467 17.1359 37.5533 16.9892 37.3L13.7092 31.46V38.74C13.7092 39.7 13.2426 40.18 12.3092 40.18ZM34.2488 40.18C33.8221 40.18 33.4688 40.0867 33.1888 39.9C32.9221 39.7 32.7021 39.4 32.5288 39L27.4888 27.8C27.2221 27.2 27.2221 26.7067 27.4888 26.32C27.7688 25.92 28.1888 25.72 28.7488 25.72C29.2021 25.72 29.5421 25.8267 29.7688 26.04C30.0088 26.24 30.2154 26.54 30.3888 26.94L34.3088 36.02L38.2288 26.92C38.3888 26.5333 38.5888 26.24 38.8288 26.04C39.0821 25.8267 39.4221 25.72 39.8488 25.72C40.3688 25.72 40.7554 25.92 41.0088 26.32C41.2754 26.7067 41.2754 27.2 41.0088 27.8L35.9688 39C35.7821 39.4 35.5554 39.7 35.2888 39.9C35.0354 40.0867 34.6888 40.18 34.2488 40.18ZM48.78 40.18C48.3533 40.18 48 40.0867 47.72 39.9C47.4533 39.7 47.2333 39.4 47.06 39L42.02 27.8C41.7533 27.2 41.7533 26.7067 42.02 26.32C42.3 25.92 42.72 25.72 43.28 25.72C43.7333 25.72 44.0733 25.8267 44.3 26.04C44.54 26.24 44.7467 26.54 44.92 26.94L48.84 36.02L52.76 26.92C52.92 26.5333 53.12 26.24 53.36 26.04C53.6133 25.8267 53.9533 25.72 54.38 25.72C54.9 25.72 55.2867 25.92 55.54 26.32C55.8067 26.7067 55.8067 27.2 55.54 27.8L50.5 39C50.3133 39.4 50.0867 39.7 49.82 39.9C49.5667 40.0867 49.22 40.18 48.78 40.18ZM58.8913 40.18C58.4379 40.18 58.0913 40.0533 57.8513 39.8C57.6113 39.5467 57.4913 39.1933 57.4913 38.74V27.16C57.4913 26.6933 57.6179 26.34 57.8713 26.1C58.1246 25.8467 58.4846 25.72 58.9513 25.72C59.3513 25.72 59.6646 25.8 59.8913 25.96C60.1313 26.12 60.3513 26.38 60.5513 26.74L64.8313 34.56L69.1113 26.74C69.3113 26.38 69.5246 26.12 69.7513 25.96C69.9913 25.8 70.3046 25.72 70.6913 25.72C71.1446 25.72 71.4913 25.8467 71.7313 26.1C71.9846 26.34 72.1113 26.6933 72.1113 27.16V38.74C72.1113 39.7 71.6446 40.18 70.7113 40.18C69.7646 40.18 69.2913 39.7 69.2913 38.74V31.4L66.0113 37.3C65.8513 37.5533 65.6779 37.7467 65.4913 37.88C65.3179 38 65.0846 38.06 64.7913 38.06C64.4979 38.06 64.2579 38 64.0713 37.88C63.8846 37.7467 63.7179 37.5533 63.5713 37.3L60.2913 31.46V38.74C60.2913 39.7 59.8246 40.18 58.8913 40.18Z" fill="#0078D4"/>
<defs>
<linearGradient id="paint0_linear" x1="42.0006" y1="6.0014" x2="42.0006" y2="62.0015" gradientUnits="userSpaceOnUse">
<stop stop-color="#F0F0F0"/>
<stop offset="0.346" stop-color="#E1E3E4"/>
<stop offset="1" stop-color="#BBC1C4"/>
</linearGradient>
<linearGradient id="paint1_linear" x1="42" y1="0" x2="42" y2="8" gradientUnits="userSpaceOnUse">
<stop stop-color="#32BDEF"/>
<stop offset="1" stop-color="#1EA2E4"/>
</linearGradient>
<linearGradient id="paint2_linear" x1="0" y1="62" x2="84" y2="62" gradientUnits="userSpaceOnUse">
<stop stop-color="#199AE0"/>
<stop offset="1" stop-color="#0782D8"/>
</linearGradient>
</defs>
</svg>
