<svg width="76" height="72" viewBox="0 0 76 72" fill="none" xmlns="http://www.w3.org/2000/svg">
<path d="M59.998 72C59.07 72 58.236 71.35 58.04 70.404L48 21.872L37.958 70.406C37.734 71.488 36.668 72.176 35.594 71.96C34.512 71.736 33.816 70.676 34.04 69.596L46.04 11.596C46.234 10.666 47.05 10 48 10C48.95 10 49.766 10.666 49.958 11.596L61.958 69.596C62.18 70.676 61.486 71.734 60.404 71.96C60.27 71.986 60.132 72 59.998 72Z" fill="#16538C"/>
<path d="M74 0H22C20.896 0 20 0.896 20 2V46C20 47.104 20.896 48 22 48H74C75.104 48 76 47.104 76 46V2C76 0.896 75.104 0 74 0Z" fill="url(#paint0_radial)"/>
<path opacity="0.05" d="M35 18C34.658 18 20 18 20 18V28C20 28 34.658 28 35 28C37.762 28 40 25.762 40 23C40 20.238 37.762 18 35 18Z" fill="black"/>
<path opacity="0.07" d="M35 19C34.652 19 20 19 20 19V27C20 27 34.652 27 35 27C37.21 27 39 25.21 39 23C39 20.79 37.21 19 35 19Z" fill="black"/>
<path d="M8 16C3.6 16 0 12.4 0 8C0 3.6 3.6 0 8 0C12.4 0 16 3.6 16 8C16 12.4 12.4 16 8 16Z" fill="url(#paint1_linear)"/>
<path d="M16 40H10V69C10 70.656 11.344 72 13 72C14.656 72 16 70.656 16 69V40Z" fill="url(#paint2_linear)"/>
<path d="M6 40H0V69C0 70.656 1.344 72 3 72C4.656 72 6 70.656 6 69V40Z" fill="url(#paint3_linear)"/>
<path d="M35 20H8C3.582 20 0 23.582 0 28V52H6C6 50.896 6.896 50 8 50C9.104 50 10 50.896 10 52H16V28C16 26.896 16.896 26 18 26H35C36.656 26 38 24.656 38 23C38 21.344 36.656 20 35 20Z" fill="url(#paint4_linear)"/>
<defs>
<radialGradient id="paint0_radial" cx="0" cy="0" r="1" gradientUnits="userSpaceOnUse" gradientTransform="translate(90.432 65.424) scale(102.322)">
<stop offset="0.131" stop-color="#23D9D6"/>
<stop offset="0.214" stop-color="#21BDDD"/>
<stop offset="0.364" stop-color="#1E90E7"/>
<stop offset="0.508" stop-color="#1B6CF0"/>
<stop offset="0.642" stop-color="#1953F6"/>
<stop offset="0.764" stop-color="#1843FA"/>
<stop offset="0.862" stop-color="#183EFB"/>
</radialGradient>
<linearGradient id="paint1_linear" x1="2.478" y1="2.478" x2="13.478" y2="13.478" gradientUnits="userSpaceOnUse">
<stop stop-color="#32BDEF"/>
<stop offset="1" stop-color="#1EA2E4"/>
</linearGradient>
<linearGradient id="paint2_linear" x1="-1.16" y1="18.59" x2="19.682" y2="71.866" gradientUnits="userSpaceOnUse">
<stop stop-color="#32BDEF"/>
<stop offset="1" stop-color="#1EA2E4"/>
</linearGradient>
<linearGradient id="paint3_linear" x1="-9.588" y1="22.606" x2="11.254" y2="75.882" gradientUnits="userSpaceOnUse">
<stop stop-color="#32BDEF"/>
<stop offset="1" stop-color="#1EA2E4"/>
</linearGradient>
<linearGradient id="paint4_linear" x1="10.68" y1="15.946" x2="30.21" y2="65.868" gradientUnits="userSpaceOnUse">
<stop stop-color="#32BDEF"/>
<stop offset="1" stop-color="#1EA2E4"/>
</linearGradient>
</defs>
</svg>
