<svg width="84" height="78" viewBox="0 0 84 78" fill="none" xmlns="http://www.w3.org/2000/svg">
<path d="M82 6H2V62H82V6Z" fill="url(#paint0_linear)"/>
<path d="M40 62H44V74H40V62Z" fill="#64717C"/>
<path d="M82 8H2C0.896 8 0 7.104 0 6V2C0 0.896 0.896 0 2 0H82C83.104 0 84 0.896 84 2V6C84 7.104 83.104 8 82 8Z" fill="url(#paint1_linear)"/>
<path d="M38 74C38 76.208 39.792 78 42 78C44.208 78 46 76.208 46 74C46 71.792 44.208 70 42 70C39.792 70 38 71.792 38 74Z" fill="#ABB4BE"/>
<path d="M82 60H2C0.896 60 0 60.896 0 62C0 63.104 0.896 64 2 64H82C83.104 64 84 63.104 84 62C84 60.896 83.104 60 82 60Z" fill="url(#paint2_linear)"/>
<path d="M30.2691 40.18C29.7624 40.18 29.3757 40.04 29.1091 39.76C28.8424 39.48 28.7091 39.0867 28.7091 38.58V27.48C28.7091 26.4267 29.2357 25.9 30.2891 25.9H35.1491C36.7224 25.9 37.9357 26.28 38.7891 27.04C39.6424 27.8 40.0691 28.86 40.0691 30.22C40.0691 31.2733 39.7957 32.1533 39.2491 32.86C38.7157 33.5533 37.9491 34.0267 36.9491 34.28C37.6557 34.4933 38.2357 35.0067 38.6891 35.82L39.9291 38.12C40.2091 38.6267 40.2624 39.1 40.0891 39.54C39.9157 39.9667 39.4957 40.18 38.8291 40.18C38.3891 40.18 38.0291 40.0867 37.7491 39.9C37.4691 39.7133 37.2291 39.4267 37.0291 39.04L35.1091 35.5C34.9091 35.1267 34.6624 34.8733 34.3691 34.74C34.0757 34.6067 33.7291 34.54 33.3291 34.54H31.8091V38.58C31.8091 39.0867 31.6757 39.48 31.4091 39.76C31.1557 40.04 30.7757 40.18 30.2691 40.18ZM31.8091 32.3H34.5891C36.2557 32.3 37.0891 31.6333 37.0891 30.3C37.0891 28.98 36.2557 28.32 34.5891 28.32H31.8091V32.3ZM43.3195 40.18C42.9195 40.18 42.5862 40.0733 42.3195 39.86C42.0662 39.6467 41.9195 39.3733 41.8795 39.04C41.8395 38.7067 41.9462 38.3667 42.1995 38.02L46.0995 32.86L42.3795 27.9C42.1129 27.54 41.9995 27.2 42.0395 26.88C42.0795 26.5467 42.2262 26.2733 42.4795 26.06C42.7329 25.8333 43.0595 25.72 43.4595 25.72C44.0595 25.72 44.5995 26.0533 45.0795 26.72L47.8795 30.6L50.6595 26.72C50.9129 26.3733 51.1662 26.12 51.4195 25.96C51.6729 25.8 51.9662 25.72 52.2995 25.72C52.6862 25.72 53.0062 25.8267 53.2595 26.04C53.5262 26.2533 53.6795 26.5267 53.7195 26.86C53.7595 27.1933 53.6462 27.54 53.3795 27.9L49.6395 32.86L53.5195 38.02C53.7862 38.3667 53.8995 38.7067 53.8595 39.04C53.8329 39.3733 53.6862 39.6467 53.4195 39.86C53.1662 40.0733 52.8329 40.18 52.4195 40.18C52.0995 40.18 51.8129 40.1 51.5595 39.94C51.3195 39.78 51.0662 39.52 50.7995 39.16L47.8595 35.14L44.9395 39.16C44.6862 39.52 44.4329 39.78 44.1795 39.94C43.9262 40.1 43.6395 40.18 43.3195 40.18Z" fill="#0078D4"/>
<defs>
<linearGradient id="paint0_linear" x1="42.0006" y1="6.0014" x2="42.0006" y2="62.0015" gradientUnits="userSpaceOnUse">
<stop stop-color="#F0F0F0"/>
<stop offset="0.346" stop-color="#E1E3E4"/>
<stop offset="1" stop-color="#BBC1C4"/>
</linearGradient>
<linearGradient id="paint1_linear" x1="42" y1="0" x2="42" y2="8" gradientUnits="userSpaceOnUse">
<stop stop-color="#32BDEF"/>
<stop offset="1" stop-color="#1EA2E4"/>
</linearGradient>
<linearGradient id="paint2_linear" x1="0" y1="62" x2="84" y2="62" gradientUnits="userSpaceOnUse">
<stop stop-color="#199AE0"/>
<stop offset="1" stop-color="#0782D8"/>
</linearGradient>
</defs>
</svg>
