<svg width="84" height="78" viewBox="0 0 84 78" fill="none" xmlns="http://www.w3.org/2000/svg">
<path d="M82 6H2V62H82V6Z" fill="url(#paint0_linear)"/>
<path d="M40 62H44V74H40V62Z" fill="#64717C"/>
<path d="M82 8H2C0.896 8 0 7.104 0 6V2C0 0.896 0.896 0 2 0H82C83.104 0 84 0.896 84 2V6C84 7.104 83.104 8 82 8Z" fill="url(#paint1_linear)"/>
<path d="M38 74C38 76.208 39.792 78 42 78C44.208 78 46 76.208 46 74C46 71.792 44.208 70 42 70C39.792 70 38 71.792 38 74Z" fill="#ABB4BE"/>
<path d="M82 60H2C0.896 60 0 60.896 0 62C0 63.104 0.896 64 2 64H82C83.104 64 84 63.104 84 62C84 60.896 83.104 60 82 60Z" fill="url(#paint2_linear)"/>
<path d="M14.5598 40.18C14.1598 40.18 13.8264 40.0733 13.5598 39.86C13.3064 39.6467 13.1598 39.3733 13.1198 39.04C13.0798 38.7067 13.1864 38.3667 13.4398 38.02L17.3398 32.86L13.6198 27.9C13.3531 27.54 13.2398 27.2 13.2798 26.88C13.3198 26.5467 13.4664 26.2733 13.7198 26.06C13.9731 25.8333 14.2998 25.72 14.6998 25.72C15.2998 25.72 15.8398 26.0533 16.3198 26.72L19.1198 30.6L21.8998 26.72C22.1531 26.3733 22.4064 26.12 22.6598 25.96C22.9131 25.8 23.2064 25.72 23.5398 25.72C23.9264 25.72 24.2464 25.8267 24.4998 26.04C24.7664 26.2533 24.9198 26.5267 24.9598 26.86C24.9998 27.1933 24.8864 27.54 24.6198 27.9L20.8798 32.86L24.7598 38.02C25.0264 38.3667 25.1398 38.7067 25.0998 39.04C25.0731 39.3733 24.9264 39.6467 24.6598 39.86C24.4064 40.0733 24.0731 40.18 23.6598 40.18C23.3398 40.18 23.0531 40.1 22.7998 39.94C22.5598 39.78 22.3064 39.52 22.0398 39.16L19.0998 35.14L16.1798 39.16C15.9264 39.52 15.6731 39.78 15.4198 39.94C15.1664 40.1 14.8798 40.18 14.5598 40.18ZM27.5173 40.18C26.9573 40.18 26.5573 39.9933 26.3173 39.62C26.0773 39.2467 26.0839 38.7867 26.3373 38.24L31.4573 27.02C31.6706 26.5667 31.9239 26.24 32.2173 26.04C32.5106 25.8267 32.8506 25.72 33.2373 25.72C33.6239 25.72 33.9639 25.8267 34.2573 26.04C34.5506 26.24 34.7973 26.5667 34.9973 27.02L40.1573 38.24C40.4106 38.8 40.4173 39.2667 40.1773 39.64C39.9506 40 39.5773 40.18 39.0573 40.18C38.6039 40.18 38.2506 40.0733 37.9973 39.86C37.7573 39.6467 37.5439 39.3133 37.3573 38.86L36.5173 36.94H29.9373L29.1173 38.86C28.9173 39.3267 28.7039 39.6667 28.4773 39.88C28.2506 40.08 27.9306 40.18 27.5173 40.18ZM33.1973 29.2L30.9773 34.52H35.4973L33.2373 29.2H33.1973ZM43.6159 40.18C43.1625 40.18 42.8159 40.0533 42.5759 39.8C42.3359 39.5467 42.2159 39.1933 42.2159 38.74V27.16C42.2159 26.6933 42.3425 26.34 42.5959 26.1C42.8492 25.8467 43.2092 25.72 43.6759 25.72C44.0759 25.72 44.3892 25.8 44.6159 25.96C44.8559 26.12 45.0759 26.38 45.2759 26.74L49.5559 34.56L53.8359 26.74C54.0359 26.38 54.2492 26.12 54.4759 25.96C54.7159 25.8 55.0292 25.72 55.4159 25.72C55.8692 25.72 56.2159 25.8467 56.4559 26.1C56.7092 26.34 56.8359 26.6933 56.8359 27.16V38.74C56.8359 39.7 56.3692 40.18 55.4359 40.18C54.4892 40.18 54.0159 39.7 54.0159 38.74V31.4L50.7359 37.3C50.5759 37.5533 50.4025 37.7467 50.2159 37.88C50.0425 38 49.8092 38.06 49.5159 38.06C49.2225 38.06 48.9825 38 48.7959 37.88C48.6092 37.7467 48.4425 37.5533 48.2959 37.3L45.0159 31.46V38.74C45.0159 39.7 44.5492 40.18 43.6159 40.18ZM61.2754 40C60.7554 40 60.3621 39.8667 60.0954 39.6C59.8287 39.32 59.6954 38.9267 59.6954 38.42V27.44C59.6954 26.9333 59.8287 26.5467 60.0954 26.28C60.3621 26 60.7487 25.86 61.2554 25.86C62.2821 25.86 62.7954 26.3867 62.7954 27.44V37.38H68.1554C69.0487 37.38 69.4954 37.8133 69.4954 38.68C69.4954 39.56 69.0487 40 68.1554 40H61.2754Z" fill="#0078D4"/>
<defs>
<linearGradient id="paint0_linear" x1="42.0006" y1="6.0014" x2="42.0006" y2="62.0015" gradientUnits="userSpaceOnUse">
<stop stop-color="#F0F0F0"/>
<stop offset="0.346" stop-color="#E1E3E4"/>
<stop offset="1" stop-color="#BBC1C4"/>
</linearGradient>
<linearGradient id="paint1_linear" x1="42" y1="0" x2="42" y2="8" gradientUnits="userSpaceOnUse">
<stop stop-color="#32BDEF"/>
<stop offset="1" stop-color="#1EA2E4"/>
</linearGradient>
<linearGradient id="paint2_linear" x1="0" y1="62" x2="84" y2="62" gradientUnits="userSpaceOnUse">
<stop stop-color="#199AE0"/>
<stop offset="1" stop-color="#0782D8"/>
</linearGradient>
</defs>
</svg>
