<svg width="88" height="64" viewBox="0 0 88 64" fill="none" xmlns="http://www.w3.org/2000/svg">
<path d="M86.024 53.12C85.146 57.6 81.416 61.014 76.808 61.654C69.566 62.72 57.496 64 43.89 64C30.504 64 18.434 62.72 10.972 61.654C6.364 61.014 2.632 57.6 1.756 53.12C0.878 48.214 0 40.96 0 32C0 23.04 0.878 15.786 1.756 10.88C2.634 6.4 6.364 2.986 10.972 2.346C18.214 1.28 30.284 0 43.89 0C57.496 0 69.346 1.28 76.808 2.346C81.416 2.986 85.148 6.4 86.024 10.88C86.902 15.786 88 23.04 88 32C87.78 40.96 86.902 48.214 86.024 53.12Z" fill="url(#paint0_linear)"/>
<path opacity="0.05" d="M60.704 28.88L37.832 13.632C36.678 12.862 35.204 12.79 33.982 13.446C32.76 14.1 32 15.366 32 16.752V47.248C32 48.634 32.76 49.902 33.982 50.556C34.538 50.854 35.144 51 35.75 51C36.478 51 37.202 50.788 37.83 50.37L60.702 35.122C61.748 34.424 62.372 33.258 62.372 32.002C62.374 30.744 61.748 29.578 60.704 28.88Z" fill="black"/>
<path opacity="0.07" d="M37.362 14.474L58.942 28.862C60.32 29.852 61.248 30.738 61.248 31.888C61.248 33.038 60.8 33.84 59.818 34.556C59.076 35.096 37.728 49.284 37.728 49.284C35.926 50.492 33 50.236 33 46.286V17.488C33 13.478 36.168 13.678 37.362 14.474Z" fill="black"/>
<path d="M34 47.136V16.866C34 15.38 35.656 14.492 36.894 15.318L59.598 30.454C60.704 31.19 60.704 32.814 59.598 33.552L36.894 48.688C35.656 49.51 34 48.624 34 47.136Z" fill="white"/>
<defs>
<linearGradient id="paint0_linear" x1="15.632" y1="3.742" x2="78.492" y2="66.602" gradientUnits="userSpaceOnUse">
<stop stop-color="#F44F5A"/>
<stop offset="0.443" stop-color="#EE3D4A"/>
<stop offset="1" stop-color="#E52030"/>
</linearGradient>
</defs>
</svg>
