<svg width="25" height="24" viewBox="0 0 25 24" fill="none" xmlns="http://www.w3.org/2000/svg">
<path d="M10.8836 0.0848867C5.24208 0.698095 0.704338 5.23583 0.0911295 10.7547C-0.64472 16.8868 3.15717 22.1604 8.5534 23.8774V21.0566C8.5534 21.0566 8.06283 21.1792 7.44963 21.1792C5.73264 21.1792 4.99679 19.7075 4.87415 18.8491C4.75151 18.3585 4.50623 17.9906 4.1383 17.6226C3.77038 17.5 3.64774 17.5 3.64774 17.3774C3.64774 17.1321 4.01566 17.1321 4.1383 17.1321C4.87415 17.1321 5.48736 17.9906 5.73264 18.3585C6.34585 19.3396 7.0817 19.5849 7.44963 19.5849C7.94019 19.5849 8.30812 19.4623 8.5534 19.3396C8.67604 18.4811 9.04397 17.6226 9.77982 17.1321C6.95906 16.5189 4.87415 14.9245 4.87415 12.2264C4.87415 10.8773 5.48736 9.52829 6.34585 8.54716C6.22321 8.30187 6.10057 7.68867 6.10057 6.83017C6.10057 6.33961 6.10057 5.60376 6.46849 4.86791C6.46849 4.86791 8.18548 4.86791 9.90246 6.46225C10.5157 6.21697 11.3742 6.09433 12.2326 6.09433C13.0911 6.09433 13.9496 6.21697 14.6855 6.46225C16.2798 4.86791 18.1194 4.86791 18.1194 4.86791C18.3647 5.60376 18.3647 6.33961 18.3647 6.83017C18.3647 7.81131 18.2421 8.30187 18.1194 8.54716C18.9779 9.52829 19.5911 10.7547 19.5911 12.2264C19.5911 14.9245 17.5062 16.5189 14.6855 17.1321C15.4213 17.7453 15.9119 18.8491 15.9119 19.9528V24C20.9402 22.4057 24.4968 17.7453 24.4968 12.349C24.4968 4.99055 18.2421 -0.773604 10.8836 0.0848867Z" fill="#869AB8"/>
</svg>
