<svg width="42" height="42" viewBox="0 0 42 42" fill="none" xmlns="http://www.w3.org/2000/svg">
<g clip-path="url(#clip0)">
<path d="M25.8039 0C25.8039 0.0741177 25.8039 0.148235 25.8039 0.226471C25.8039 2.88647 23.6476 5.04206 20.9883 5.04206C18.3283 5.04206 16.1727 2.88578 16.1727 0.226471C16.1727 0.148235 16.1727 0.0741177 16.1727 0L0 0V42H42V0H25.8039Z" fill="white"/>
<path d="M9.75607 22.634H12.5396L14.4399 32.7545H14.4742L16.7581 22.634H19.3619L21.4248 32.8787H21.4653L23.6312 22.634H26.3612L22.8138 37.5049H20.0516L18.0058 27.3844H17.9522L15.7623 37.5049H12.9486L9.75607 22.634ZM29.4995 22.634H33.8875L38.2454 37.5049H35.374L34.4263 34.1957H29.4274L28.6959 37.5049H25.8993L29.4995 22.634ZM31.1699 26.2994L29.9559 31.7553H33.7345L32.3407 26.2994H31.1699Z" fill="#1E263D"/>
</g>
<defs>
<clipPath id="clip0">
<rect width="42" height="42" fill="white"/>
</clipPath>
</defs>
</svg>
