<svg width="24" height="20" viewBox="0 0 24 20" fill="none" xmlns="http://www.w3.org/2000/svg">
<path d="M23.4984 2.6232C23.2224 1.5912 22.4088 0.7776 21.3768 0.5016C19.5048 2.5034e-07 12 0 12 0C12 0 4.4952 2.5034e-07 2.6232 0.5016C1.5912 0.7776 0.7776 1.5912 0.5016 2.6232C-3.57628e-08 4.4952 0 9.6 0 9.6C0 9.6 -3.57628e-08 14.7048 0.5016 16.5768C0.7776 17.6088 1.5912 18.4224 2.6232 18.6984C4.4952 19.2 12 19.2 12 19.2C12 19.2 19.5048 19.2 21.3768 18.6984C22.41 18.4224 23.2224 17.6088 23.4984 16.5768C24 14.7048 24 9.6 24 9.6C24 9.6 24 4.4952 23.4984 2.6232ZM9.6 13.7568V5.4432L16.8 9.6L9.6 13.7568Z" fill="#869AB8"/>
</svg>
