<?xml version="1.0" standalone="no"?>
<!DOCTYPE svg PUBLIC "-//W3C//DTD SVG 20010904//EN"
 "http://www.w3.org/TR/2001/REC-SVG-20010904/DTD/svg10.dtd">
<svg version="1.0" xmlns="http://www.w3.org/2000/svg"
 width="512.000000pt" height="512.000000pt" viewBox="0 0 512.000000 512.000000"
 preserveAspectRatio="xMidYMid meet">
<metadata>
Created by potrace 1.11, written by Peter Selinger 2001-2013
</metadata>
<g transform="translate(0.000000,512.000000) scale(0.100000,-0.100000)"
fill="#000000" stroke="none">
<path d="M2345 4056 c-244 -40 -470 -133 -668 -273 -177 -125 -372 -353 -471
-552 -37 -72 -106 -252 -106 -274 0 -7 27 -26 61 -42 119 -57 206 -174 229
-307 30 -173 -68 -360 -228 -434 -34 -16 -62 -34 -62 -41 0 -24 64 -191 102
-268 227 -452 657 -763 1158 -835 110 -16 349 -14 455 5 166 29 295 70 417
131 37 19 70 34 73 34 3 0 5 -40 5 -90 l0 -90 395 0 395 0 0 808 c0 498 -4
840 -10 892 -45 361 -206 682 -468 931 -209 199 -454 328 -744 390 -120 26
-415 35 -533 15z m430 -807 c254 -78 437 -265 506 -514 26 -96 28 -274 4 -370
-26 -103 -97 -234 -170 -313 -394 -425 -1080 -264 -1252 294 -26 84 -25 314 1
399 82 268 294 463 566 521 91 19 255 11 345 -17z"/>
<path d="M887 2806 c-186 -67 -241 -320 -99 -459 170 -165 453 -61 470 172 6
94 -16 157 -77 220 -73 75 -194 102 -294 67z"/>
</g>
</svg>
