<svg width="35" height="42" viewBox="0 0 35 42" fill="none" xmlns="http://www.w3.org/2000/svg">
<path d="M8.59091 0C8.34655 0 8.10215 0.0935156 7.91602 0.279652C7.54374 0.651925 7.54374 1.25717 7.91602 1.62944L10.418 4.13139C7.57739 6.21584 5.72727 9.5698 5.72727 13.3636H28.6364C28.6364 9.5698 26.7862 6.21584 23.9457 4.13139L26.4476 1.62944C26.8199 1.25526 26.8199 0.653834 26.4476 0.279652C26.0754 -0.0926208 25.4701 -0.0926208 25.0978 0.279652L22.2678 3.10973C20.7339 2.34734 19.0111 1.90909 17.1818 1.90909C15.3525 1.90909 13.6297 2.34734 12.0959 3.10973L9.2658 0.279652C9.07967 0.0935156 8.83527 0 8.59091 0ZM11.4545 7.63636H13.3636V9.54545H11.4545V7.63636ZM21 7.63636H22.9091V9.54545H21V7.63636ZM1.90909 15.2727C0.855273 15.2727 0 16.128 0 17.1818V28.6364C0 29.6902 0.855273 30.5455 1.90909 30.5455C2.96291 30.5455 3.81818 29.6902 3.81818 28.6364V17.1818C3.81818 16.128 2.96291 15.2727 1.90909 15.2727ZM5.72727 15.2727V30.5455C5.72727 31.5993 6.58255 32.4545 7.63636 32.4545H9.54546V39.1364C9.54546 40.7171 10.8284 42 12.4091 42C13.9898 42 15.2727 40.7171 15.2727 39.1364V32.4545H19.0909V39.1364C19.0909 40.7171 20.3738 42 21.9545 42C23.5353 42 24.8182 40.7171 24.8182 39.1364V32.4545H26.7273C27.7811 32.4545 28.6364 31.5993 28.6364 30.5455V15.2727H5.72727ZM32.4545 15.2727C31.4007 15.2727 30.5455 16.128 30.5455 17.1818V28.6364C30.5455 29.6902 31.4007 30.5455 32.4545 30.5455C33.5084 30.5455 34.3636 29.6902 34.3636 28.6364V17.1818C34.3636 16.128 33.5084 15.2727 32.4545 15.2727Z" fill="white"/>
</svg>
