<svg width="25" height="30" viewBox="0 0 25 30" fill="none" xmlns="http://www.w3.org/2000/svg">
<path d="M18.0896 30C16.8759 30 16.0411 29.6066 15.3045 29.2596C14.5946 28.9255 13.9809 28.6364 12.9699 28.6364C11.959 28.6364 11.3453 28.9255 10.6353 29.2596C9.89879 29.6066 9.06394 30 7.85022 30C4.89717 30 0 23.2303 0 16.0229C0 11.2434 3.29846 7.50024 7.50891 7.50024C8.8926 7.50024 9.73359 7.89638 10.4756 8.24546C11.1801 8.57751 11.789 8.86387 12.9699 8.86387C14.1509 8.86387 14.7598 8.57751 15.4643 8.24546C16.2063 7.89638 17.0473 7.50024 18.431 7.50024C20.2495 7.50024 21.8666 8.16978 23.238 9.49181C23.4688 9.71408 23.5821 10.0325 23.5432 10.3509C23.5042 10.6693 23.3186 10.9509 23.0414 11.1118C21.4605 12.0302 20.4788 13.9768 20.4788 16.1933C20.4788 18.6894 21.8468 20.8358 23.8824 21.5326C24.1493 21.624 24.3664 21.821 24.4825 22.0774C24.5992 22.333 24.6053 22.6262 24.4982 22.8874C22.8414 26.9421 20.0856 30 18.0896 30ZM13.3112 6.81843C13.0669 6.81843 12.8279 6.73116 12.6395 6.56753C12.3917 6.35208 12.2614 6.03026 12.2914 5.70231C12.2996 5.61845 12.4982 3.6262 14.0615 2.0328C15.5318 0.53282 16.9633 0.0869157 17.121 0.0405526C17.4548 -0.0562645 17.8152 0.0228255 18.0774 0.25055C18.3402 0.477593 18.4692 0.82259 18.4207 1.1669C18.3975 1.33122 18.1552 2.8278 16.8971 4.5071C15.5503 6.30435 13.6266 6.77207 13.5454 6.79116C13.4676 6.80957 13.3891 6.81843 13.3112 6.81843Z" fill="#1B2A4E"/>
</svg>
