<svg width="17" height="17" viewBox="0 0 17 17" fill="none" xmlns="http://www.w3.org/2000/svg">
<path opacity="0.1" d="M0 8.5C0 3.81315 3.81315 0 8.5 0C13.1869 0 17 3.81315 17 8.5C17 13.1869 13.1869 17 8.5 17C3.81315 17 0 13.1869 0 8.5Z" fill="#53C2A1"/>
<path d="M8.01359 11.6377L12.4728 7.17845C12.7571 6.89419 12.7571 6.43148 12.473 6.14706C12.3353 6.00938 12.1522 5.93359 11.9574 5.93359C11.7625 5.93359 11.5794 6.00953 11.4417 6.14721L7.50725 10.0815L5.77296 8.28397C5.63423 8.14025 5.44778 8.06115 5.24806 8.06115C5.05829 8.06115 4.87849 8.13361 4.74187 8.26555C4.45247 8.54484 4.44417 9.00725 4.72345 9.29665L6.97314 11.6285C7.1081 11.7684 7.29696 11.8496 7.4914 11.8513L7.49789 12.1532V11.8513C7.68977 11.8513 7.87787 11.7734 8.01359 11.6377Z" fill="#53C2A1"/>
</svg>
