<svg width="17" height="17" viewBox="0 0 17 17" fill="none" xmlns="http://www.w3.org/2000/svg">
<path d="M7.62925 0.662461C3.98759 1.05829 1.05842 3.98746 0.662585 7.54996C0.187585 11.5083 2.64175 14.9125 6.12508 16.0208V14.2C6.12508 14.2 5.80842 14.2791 5.41259 14.2791C4.30425 14.2791 3.82925 13.3291 3.75008 12.775C3.67092 12.4583 3.51258 12.2208 3.27508 11.9833C3.03759 11.9041 2.95842 11.9041 2.95842 11.825C2.95842 11.6666 3.19592 11.6666 3.27508 11.6666C3.75008 11.6666 4.14592 12.2208 4.30425 12.4583C4.70008 13.0916 5.17509 13.25 5.41259 13.25C5.72925 13.25 5.96675 13.1708 6.12508 13.0916C6.20425 12.5375 6.44175 11.9833 6.91675 11.6666C5.09592 11.2708 3.75008 10.2416 3.75008 8.49996C3.75008 7.62913 4.14592 6.7583 4.70008 6.12496C4.62092 5.96663 4.54175 5.5708 4.54175 5.01663C4.54175 4.69996 4.54175 4.22496 4.77925 3.74996C4.77925 3.74996 5.88759 3.74996 6.99592 4.77913C7.39175 4.6208 7.94592 4.54163 8.50008 4.54163C9.05425 4.54163 9.60842 4.6208 10.0834 4.77913C11.1126 3.74996 12.3001 3.74996 12.3001 3.74996C12.4584 4.22496 12.4584 4.69996 12.4584 5.01663C12.4584 5.64996 12.3793 5.96663 12.3001 6.12496C12.8543 6.7583 13.2501 7.54996 13.2501 8.49996C13.2501 10.2416 11.9043 11.2708 10.0834 11.6666C10.5584 12.0625 10.8751 12.775 10.8751 13.4875V16.1C14.1209 15.0708 16.4168 12.0625 16.4168 8.57913C16.4168 3.82913 12.3793 0.108295 7.62925 0.662461Z" fill="white"/>
</svg>
