<svg width="92" height="92" viewBox="0 0 92 92" fill="none" xmlns="http://www.w3.org/2000/svg">
<path d="M46 0C20.5942 0 0 20.5942 0 46C0 66.4401 13.3423 83.7453 31.786 89.7368H60.214C78.6577 83.7453 92 66.4401 92 46C92 20.5942 71.4058 0 46 0Z" fill="url(#paint0_linear)"/>
<path opacity="0.05" d="M59.823 87.3908L59.8 74.0554C59.8 71.8957 59.294 69.7866 58.3234 67.8753C71.2977 65.2694 77.6112 57.5989 77.6112 44.4682C77.6112 39.2817 76.0817 34.7024 73.0664 30.8522C73.2964 30.1231 73.4666 29.3687 73.5724 28.5959C74.0048 25.4472 73.5195 23.3887 73.1285 21.7327L73.0664 21.4659C72.6386 19.6351 72.1257 18.3287 72.105 18.2735L71.8497 17.6249L71.5944 16.9763L70.8998 16.9027L70.2029 16.8291C70.2029 16.8291 69.7452 16.7808 69.0506 16.7808C68.0869 16.7808 66.6586 16.8774 65.3085 17.3351L64.8577 17.4869C63.1557 18.0596 61.548 18.6024 59.2986 19.9456C58.6408 20.3389 57.9209 20.7874 57.1504 21.2888C53.6682 20.4263 49.9215 19.987 46 19.987C42.0394 19.987 38.2605 20.4286 34.7553 21.3003C33.9756 20.7943 33.2511 20.3412 32.5887 19.9456C30.3393 18.6024 28.7316 18.0619 27.0296 17.4869L26.5788 17.3351C25.2333 16.8774 23.8027 16.7808 22.839 16.7808C22.1444 16.7808 21.6867 16.8291 21.6867 16.8291L20.9921 16.9027L20.3021 16.974L20.0445 17.6203L19.7846 18.2712C19.7616 18.331 19.2487 19.6374 18.8209 21.4705L18.7588 21.735C18.3678 23.3887 17.8825 25.4495 18.3149 28.5959C18.4253 29.3917 18.6024 30.1714 18.8439 30.9212C15.8884 34.753 14.3911 39.307 14.3911 44.4682C14.3911 57.5667 20.7115 65.2326 33.7042 67.8592C33.258 68.7516 32.9107 69.6946 32.6646 70.6744C32.2115 70.8285 31.7952 70.932 31.4272 70.9895C30.8798 71.0723 30.3071 71.1137 29.7275 71.1137C28.1497 71.1137 26.91 70.8055 26.427 70.518C25.7071 70.0902 24.4214 68.8459 23.1748 67.0266C22.1099 65.4741 20.4493 63.4432 18.5932 62.5945C16.9878 61.8608 15.2881 61.4399 13.9265 61.4399C13.6091 61.4399 13.317 61.4629 13.0617 61.5043C11.8726 61.6929 10.879 62.3461 10.3385 63.2983C9.87158 64.1194 9.79798 65.0762 10.1361 65.9226C10.6398 67.183 12.0934 68.1881 13.225 68.8091C13.7816 69.115 14.9845 70.2328 15.686 71.3598C16.2127 72.2062 16.4565 72.8088 16.7946 73.6414C16.9947 74.1359 17.2155 74.6741 17.5145 75.325C18.5955 77.6756 21.9696 79.7502 22.3514 79.9779C24.2052 81.0888 27.3217 81.4453 29.6125 81.5488L29.8954 81.5557H29.8977C30.4497 81.5557 31.2087 81.5028 32.2069 81.3924V87.4023C32.2115 88.619 30.9718 88.895 29.3319 88.8697L30.59 89.2929C35.4085 91.0156 40.5835 92 46 92C51.4165 92 56.5915 91.0156 61.4169 89.2952L63.0338 88.6926C61.3985 88.6374 59.8368 88.3706 59.823 87.3908Z" fill="black"/>
<path opacity="0.07" d="M61.5963 89.2331C60.6625 89.3412 58.65 88.9824 58.65 87.4046V74.0554C58.65 71.5392 57.8956 69.1081 56.4972 67.0358C70.1017 64.8347 76.4589 57.6219 76.4589 44.4682C76.4589 39.3231 74.8811 34.822 71.7692 31.0776C72.0843 30.2381 72.3051 29.3526 72.4316 28.4395C72.8341 25.5047 72.3948 23.6417 72.0084 21.9972L71.9463 21.7304C71.5369 19.9801 71.0539 18.7473 71.0332 18.6967L70.7779 18.0481L70.081 17.9745C70.081 17.9745 69.6716 17.9308 69.0483 17.9308C68.172 17.9308 66.8771 18.0159 65.6765 18.4253L65.2257 18.5771C63.5835 19.1314 62.031 19.6535 59.8874 20.9323C59.1238 21.3877 58.2728 21.9236 57.3551 22.5285C53.8292 21.6062 50.0135 21.137 46 21.137C41.9474 21.137 38.0995 21.6085 34.5483 22.54C33.6214 21.9305 32.7658 21.3923 31.9976 20.9323C29.854 19.6535 28.3015 19.1291 26.6593 18.5771L26.2085 18.4253C25.0102 18.0182 23.713 17.9308 22.8367 17.9308C22.2134 17.9308 21.804 17.9745 21.804 17.9745L21.1094 18.0481L20.8495 18.699C20.8288 18.7496 20.3458 19.9824 19.9364 21.7327L19.8743 21.9995C19.4856 23.644 19.0463 25.5047 19.4511 28.4395C19.5799 29.3756 19.8099 30.2818 20.1365 31.1397C17.0844 34.8657 15.5388 39.3438 15.5388 44.4682C15.5388 57.5851 21.9006 64.7956 35.5166 67.022C34.6081 68.379 33.9733 69.9085 33.6467 71.5392C32.8877 71.8382 32.2 72.036 31.5974 72.128C30.9925 72.22 30.3623 72.266 29.7252 72.266C28.1382 72.266 26.6133 71.9693 25.8382 71.5093C24.8262 70.909 23.4071 69.4071 22.2226 67.6798C21.4176 66.5068 19.8145 64.4207 18.1102 63.6433C16.6497 62.9763 15.1248 62.5922 13.9219 62.5922C13.6689 62.5922 13.4389 62.6106 13.2365 62.6428C12.3947 62.7762 11.7001 63.2224 11.3321 63.871C11.0377 64.3862 10.9894 64.9819 11.1964 65.4994C11.6081 66.5298 13.133 67.4544 13.7701 67.804C14.5406 68.2272 15.8838 69.5152 16.6543 70.7572C17.2316 71.6864 17.5053 72.3603 17.8526 73.2113C18.0481 73.692 18.262 74.2164 18.5518 74.8489C19.3131 76.5026 21.6637 78.2345 22.9333 78.9958C24.6675 80.0354 27.8875 80.3252 29.6539 80.4034L29.9092 80.408C30.5969 80.408 31.7492 80.3045 33.3477 80.0975V87.4046C33.3477 89.1963 31.0684 89.2676 30.5095 89.2676C30.4382 89.2676 31.6664 89.6908 31.6664 89.6908C36.1813 91.172 40.9906 92 46 92C51.0094 92 55.8187 91.172 60.3313 89.6931C60.3313 89.6931 61.6676 89.2239 61.5963 89.2331Z" fill="black"/>
<path d="M75.3112 44.4682C75.3112 39.1552 73.5126 34.7484 70.4421 31.2938C70.7756 30.5463 71.1229 29.5435 71.2954 28.2831C71.691 25.4081 71.2241 23.6831 70.8285 21.9949C70.4329 20.3067 69.966 19.1199 69.966 19.1199C69.966 19.1199 67.8454 18.9037 66.0491 19.5155C64.2528 20.1273 62.7072 20.5942 60.4785 21.9236C59.4366 22.5446 58.3878 23.2254 57.5575 23.7774C54.0086 22.793 50.1055 22.287 46 22.287C41.8577 22.287 37.9201 22.7953 34.3459 23.7866C33.5133 23.2323 32.4576 22.5469 31.4088 21.9213C29.1801 20.5919 27.6345 20.125 25.8382 19.5132C24.0419 18.9014 21.9213 19.1176 21.9213 19.1176C21.9213 19.1176 21.4544 20.3044 21.0588 21.9926C20.6632 23.6808 20.1963 25.4058 20.5919 28.2808C20.769 29.5734 21.1278 30.5946 21.4705 31.3467C18.4575 34.7806 16.6911 39.1598 16.6911 44.4659C16.6911 58.2268 24.1247 64.5081 37.6694 66.1664C36.0893 67.8362 35.029 69.9752 34.6725 72.3557C33.7824 72.7467 32.7566 73.1147 31.7699 73.2619C29.2307 73.646 26.5466 73.2619 25.254 72.496C23.9614 71.7301 22.4273 70.0051 21.2773 68.3261C20.3067 66.9093 18.906 65.2648 17.6364 64.6852C15.9597 63.9193 14.329 63.6318 13.4205 63.7744C12.5097 63.9193 12.0796 64.5886 12.2705 65.0693C12.4614 65.5477 13.3722 66.2676 14.3313 66.7943C15.2904 67.321 16.7762 68.7585 17.6387 70.1477C18.6001 71.6979 18.7887 72.5926 19.6029 74.3636C20.1756 75.6102 22.1352 77.1673 23.5313 78.0045C24.7296 78.7244 27.1239 79.1338 29.7137 79.2511C30.6084 79.2925 32.7221 79.0303 34.5046 78.7773V87.4023C34.5046 88.872 33.1591 89.9898 31.7653 89.7322C36.2388 91.2364 41.0159 92 46 92C50.9818 92 55.7589 91.2364 60.237 89.7368C58.8455 89.9921 57.5 88.8743 57.5 87.4046V74.0554C57.5 70.9987 56.2879 68.2364 54.3421 66.1779C67.7879 64.5633 75.3112 58.4315 75.3112 44.4682ZM16.6497 66.0721C16.2955 65.8904 16.1046 65.5546 16.2242 65.3177C16.3438 65.0808 16.7302 65.0371 17.0844 65.2188C17.4386 65.4005 17.6295 65.7363 17.5099 65.9732C17.3903 66.2101 17.0039 66.2538 16.6497 66.0721ZM19.4373 67.8086C19.251 68.011 18.8508 67.9466 18.5426 67.666C18.2344 67.3854 18.1355 66.9921 18.3218 66.7897C18.5081 66.5873 18.9083 66.6517 19.2165 66.9323C19.5247 67.2129 19.6236 67.6062 19.4373 67.8086ZM21.1715 70.6836C20.9369 70.8492 20.539 70.6951 20.2837 70.3386C20.0284 69.9821 20.0123 69.5566 20.2469 69.391C20.4815 69.2254 20.8794 69.3795 21.1347 69.736C21.3877 70.0925 21.4061 70.518 21.1715 70.6836ZM23.6624 72.8479C23.5037 73.1055 23.0529 73.117 22.6573 72.8755C22.2617 72.634 22.0685 72.2292 22.2272 71.9716C22.3859 71.714 22.8367 71.7025 23.2323 71.944C23.6279 72.1855 23.8211 72.5903 23.6624 72.8479ZM26.0176 74.9662C25.5277 74.9064 25.1643 74.6005 25.2057 74.2831C25.2448 73.9657 25.6749 73.7587 26.1625 73.8185C26.6524 73.8783 27.0158 74.1842 26.9744 74.5016C26.9353 74.8167 26.5075 75.026 26.0176 74.9662ZM29.8149 75.5159C29.2928 75.486 28.8857 75.187 28.9064 74.8512C28.9271 74.5154 29.3664 74.2647 29.8885 74.2946C30.4106 74.3245 30.8177 74.6235 30.797 74.9593C30.7763 75.2974 30.337 75.5458 29.8149 75.5159ZM33.3983 75.1571C32.8417 75.1571 32.3909 74.8673 32.3909 74.5108C32.3909 74.1543 32.8417 73.8645 33.3983 73.8645C33.9549 73.8645 34.4057 74.1543 34.4057 74.5108C34.4057 74.8673 33.9526 75.1571 33.3983 75.1571Z" fill="white"/>
<defs>
<linearGradient id="paint0_linear" x1="0" y1="44.8684" x2="92" y2="44.8684" gradientUnits="userSpaceOnUse">
<stop stop-color="#4C4C4C"/>
<stop offset="1" stop-color="#343434"/>
</linearGradient>
</defs>
</svg>
