<svg width="126" height="22" viewBox="0 0 126 22" fill="none" xmlns="http://www.w3.org/2000/svg">
<path d="M122.537 5.69664V4.03459H121.973V3.61685H123.551V4.03459H122.996V5.69664H122.537Z" fill="white"/>
<path d="M123.804 5.69664V3.61685H124.189L124.902 4.68211L125.615 3.61685H126V5.69664H125.567V4.42847L124.902 5.41317L124.234 4.42847V5.69664H123.804Z" fill="white"/>
<path d="M28.6185 10.6771C28.6185 9.64627 28.8178 8.67043 29.2164 7.74958C29.615 6.82872 30.1716 6.03843 30.8863 5.37872C31.601 4.70525 32.4256 4.18298 33.3602 3.81188C34.3086 3.44079 35.305 3.25525 36.3496 3.25525C37.4216 3.25525 38.4387 3.46141 39.4008 3.87373C40.3629 4.28606 41.2013 4.85644 41.9159 5.58488L39.7719 7.46095C39.3458 7.03488 38.8304 6.7119 38.2257 6.49199C37.6347 6.25834 37.0093 6.14151 36.3496 6.14151C35.7311 6.14151 35.1401 6.25834 34.5766 6.49199C34.0131 6.7119 33.5252 7.02801 33.1128 7.44033C32.7005 7.85266 32.3775 8.34057 32.1439 8.90408C31.9102 9.45385 31.7934 10.0448 31.7934 10.6771C31.7934 11.3093 31.9102 11.9072 32.1439 12.4707C32.3775 13.0204 32.7005 13.5015 33.1128 13.9138C33.5252 14.3124 34.0131 14.6285 34.5766 14.8622C35.1401 15.0821 35.7311 15.192 36.3496 15.192C36.9543 15.192 37.5247 15.0958 38.0607 14.9034C38.6105 14.711 39.0847 14.4361 39.4832 14.0787V12.1408H35.7105V9.33702H42.452V15.1508C41.7785 16.0442 40.9058 16.7588 39.8337 17.2949C38.7617 17.8171 37.6003 18.0783 36.3496 18.0783C35.305 18.0783 34.3086 17.8996 33.3602 17.5423C32.4256 17.1712 31.601 16.6489 30.8863 15.9754C30.1716 15.302 29.615 14.5117 29.2164 13.6046C28.8178 12.6837 28.6185 11.7079 28.6185 10.6771Z" fill="white"/>
<path d="M44.5136 17.8515V7.46095H47.5854V8.88347C47.819 8.36119 48.2039 7.95574 48.7399 7.66711C49.2759 7.37848 49.8944 7.23417 50.5954 7.23417C50.8015 7.23417 51.0695 7.25479 51.3994 7.29602V10.1823C51.0833 10.1136 50.7397 10.0792 50.3686 10.0792C49.5027 10.0792 48.8224 10.3197 48.3276 10.8008C47.8328 11.2818 47.5854 11.9415 47.5854 12.7799V17.8515H44.5136Z" fill="white"/>
<path d="M53.073 17.8515V7.46095H56.1448V17.8515H53.073Z" fill="white"/>
<path d="M59.011 17.8515V10.2441H57.6297V7.46095H59.011V3.48203H62.0003V7.46095H64.2887V10.2441H62.0003V17.8515H59.011Z" fill="white"/>
<path d="M68.3633 17.8515L64.0132 3.48203H67.1469L69.8476 12.2851L72.4246 3.48203H74.9192L77.4962 12.2851L80.1969 3.48203H83.31L78.96 17.8515H76.2799L73.6616 9.27517L71.0434 17.8515H68.3633Z" fill="white"/>
<path d="M82.6243 12.6562C82.6243 11.914 82.7686 11.2062 83.0573 10.5328C83.3596 9.8593 83.772 9.2683 84.2942 8.75977C84.8303 8.25124 85.4488 7.85953 86.1497 7.58465C86.8644 7.29602 87.6134 7.15171 88.3969 7.15171C89.1665 7.15171 89.9018 7.29602 90.6028 7.58465C91.3175 7.85953 91.9428 8.25124 92.4789 8.75977C93.0149 9.2683 93.4272 9.8593 93.7158 10.5328C94.0182 11.2062 94.1694 11.914 94.1694 12.6562C94.1694 13.3984 94.0182 14.1062 93.7158 14.7797C93.4272 15.4532 93.0149 16.0442 92.4789 16.5527C91.9428 17.0612 91.3175 17.4598 90.6028 17.7484C89.9018 18.0233 89.1665 18.1607 88.3969 18.1607C87.6134 18.1607 86.8644 18.0233 86.1497 17.7484C85.4488 17.4598 84.8303 17.0612 84.2942 16.5527C83.772 16.0442 83.3596 15.4532 83.0573 14.7797C82.7686 14.1062 82.6243 13.3984 82.6243 12.6562ZM85.6961 12.6562C85.6961 13.206 85.8473 13.7077 86.1497 14.1612C86.4521 14.6148 86.8094 14.9309 87.2217 15.1096C87.6478 15.2882 88.0395 15.3776 88.3969 15.3776C88.7405 15.3776 89.1253 15.2882 89.5514 15.1096C89.9774 14.9309 90.3417 14.6148 90.644 14.1612C90.9464 13.7077 91.0976 13.206 91.0976 12.6562C91.0976 12.3126 91.0082 11.9278 90.8296 11.5017C90.6509 11.0757 90.3348 10.7114 89.8812 10.4091C89.4277 10.0929 88.9329 9.93489 88.3969 9.93489C87.6409 9.93489 87.0018 10.2029 86.4796 10.7389C85.9573 11.2612 85.6961 11.9003 85.6961 12.6562Z" fill="white"/>
<path d="M95.8643 17.8515V7.46095H98.9361V8.88347C99.1697 8.36119 99.5546 7.95574 100.091 7.66711C100.627 7.37848 101.245 7.23417 101.946 7.23417C102.152 7.23417 102.42 7.25479 102.75 7.29602V10.1823C102.434 10.1136 102.09 10.0792 101.719 10.0792C100.853 10.0792 100.173 10.3197 99.6783 10.8008C99.1835 11.2818 98.9361 11.9415 98.9361 12.7799V17.8515H95.8643Z" fill="white"/>
<path d="M104.382 17.8515V3.48203H107.454V17.8515H104.382Z" fill="white"/>
<path d="M109.145 12.6562C109.145 11.9278 109.276 11.2337 109.537 10.574C109.798 9.91428 110.162 9.33702 110.63 8.84223C111.097 8.34745 111.647 7.96261 112.279 7.68773C112.911 7.41285 113.585 7.2754 114.299 7.2754C114.67 7.2754 115.076 7.32351 115.516 7.41972C115.955 7.51593 116.347 7.6946 116.691 7.95574C117.048 8.20313 117.282 8.49176 117.392 8.82162V3.48203H120.464V17.8515H117.392V16.4908C117.241 16.9306 116.876 17.3017 116.299 17.6041C115.736 17.8927 115.069 18.0371 114.299 18.0371C113.585 18.0371 112.911 17.8996 112.279 17.6247C111.647 17.3498 111.097 16.965 110.63 16.4702C110.162 15.9754 109.798 15.3982 109.537 14.7385C109.276 14.0787 109.145 13.3847 109.145 12.6562ZM112.217 12.6562C112.217 13.3847 112.471 14.0032 112.98 14.5117C113.488 15.0065 114.114 15.2539 114.856 15.2539C115.2 15.2539 115.584 15.1714 116.01 15.0065C116.437 14.8278 116.801 14.5254 117.103 14.0994C117.419 13.6595 117.577 13.1785 117.577 12.6562C117.577 12.134 117.419 11.6598 117.103 11.2337C116.801 10.7939 116.437 10.4915 116.01 10.3266C115.584 10.1479 115.2 10.0586 114.856 10.0586C114.114 10.0586 113.488 10.3129 112.98 10.8214C112.471 11.3162 112.217 11.9278 112.217 12.6562Z" fill="white"/>
<path d="M53.073 3.47443H56.1448V6.18709H53.073V3.47443Z" fill="white"/>
<path d="M12.0713 8.95176H7.4598L9.35866 5.69658H15.7334L17.361 8.00233L13.5633 14.3771H4.20462L0 7.32417L4.20462 0H20.8874L25.2277 7.32417L16.8185 21.7012H8.2736L5.28968 16.5472H9.49429L10.4437 18.1748H14.784L21.2943 7.32417L18.853 3.52645H6.10347L4.06898 7.32417L6.37474 11.1219H10.8506L12.0713 8.95176Z" fill="white"/>
</svg>
