<svg width="92" height="92" viewBox="0 0 92 92" fill="none" xmlns="http://www.w3.org/2000/svg">
<path d="M92 46C92 71.4035 71.4035 92 46 92C20.5965 92 0 71.4035 0 46C0 20.5965 20.5965 0 46 0C71.4035 0 92 20.5965 92 46Z" fill="url(#paint0_linear)"/>
<path opacity="0.05" d="M54.4525 67.6476C54.4525 72.0705 51.1451 75.1617 46.4048 75.1617C42.458 75.1617 38.2628 72.5282 38.2628 67.6476C38.2628 62.8084 42.458 60.1956 46.4048 60.1956C50.4045 60.1956 54.4525 62.7555 54.4525 67.6476Z" fill="black"/>
<path opacity="0.05" d="M46.7176 18.4C40.8066 18.4 36.0502 20.4332 33.7226 21.6568C32.7543 22.1651 32.1678 23.1748 32.1678 24.2673V36.0249C32.1678 37.1657 33.5179 37.7499 34.3574 36.9748C36.6666 34.8404 40.6456 32.0137 45.5147 32.0137C46.6854 32.0137 48.6496 32.3587 48.6496 34.6679C48.6496 36.9426 47.2811 38.249 44.8661 40.3604C41.9681 42.8927 38.3617 46.046 38.3617 52.4584C38.3617 54.4502 38.7366 56.0855 39.1046 57.2079C39.4381 58.2222 40.4064 58.8869 41.4759 58.8869C41.4759 58.8869 49.3764 58.8731 50.508 58.8731C53.1714 58.8731 52.9299 56.9181 52.5757 55.9498C52.348 55.3242 51.9064 54.3582 51.9064 53.4566C51.9064 51.2555 53.4543 49.8364 56.1913 47.5157C59.7241 44.5211 64.1217 40.7928 64.1217 33.1522C64.1263 23.9154 57.6196 18.4 46.7176 18.4Z" fill="black"/>
<path opacity="0.07" d="M46.4048 61.3456C49.7651 61.3456 53.3025 63.388 53.3025 67.6476C53.3025 71.6726 50.1952 74.0117 46.4048 74.0117C43.0123 74.0117 39.4128 71.8083 39.4128 67.6476C39.4128 63.5076 43.0698 61.3456 46.4048 61.3456Z" fill="black"/>
<path opacity="0.07" d="M34.4701 22.5469C36.6551 21.3785 40.9354 19.55 46.7199 19.55C59.6275 19.55 62.9763 27.4344 62.9763 33.1568C62.9763 40.1626 59.0088 43.6241 55.6071 46.5106C53.3439 48.4288 51.865 49.8801 51.2164 51.796C50.5011 53.9097 51.5499 55.5036 51.5752 55.5818C51.8696 56.4328 51.6189 57.7346 49.6984 57.7346C48.0976 57.7369 42.5293 57.7392 42.5293 57.7392C41.9957 57.7392 40.4133 57.408 40.2454 56.8997C39.9648 56.097 39.5485 54.4939 39.5186 52.7505C39.514 52.5573 39.5163 52.3618 39.5186 52.1686C39.6428 45.9609 43.493 43.1894 46.414 40.5145C48.4633 38.6538 49.7996 37.1266 49.7996 34.6679C49.7996 32.5151 48.392 31.7561 47.2949 31.3881C45.9126 30.9235 44.4153 31.004 43.5643 31.1604C40.48 31.7331 37.8465 33.0993 35.9996 34.4609C35.1187 35.1095 34.0538 35.098 33.7387 34.7714C33.5639 34.9071 33.3155 33.9917 33.3155 33.7686V24.8722C33.3155 24.6859 33.3638 24.1132 33.4144 23.943C33.5869 23.368 33.9181 22.8413 34.4701 22.5469Z" fill="black"/>
<path d="M41.3862 56.5915C41.1562 55.9958 40.664 54.2179 40.664 52.463C40.664 42.4695 50.9519 42.0854 50.9519 34.6725C50.9519 30.0058 46.3404 29.7183 45.5147 29.7183C40.2776 29.7183 36.1882 32.7129 34.4678 34.2263V23.8694C36.2342 22.8114 40.2776 20.7 46.7199 20.7C61.6377 20.7 61.8263 30.9534 61.8263 33.1568C61.8263 44.9926 49.611 45.8712 49.611 53.4589C49.611 55.0413 50.1837 56.2005 50.4367 56.5892H41.3862V56.5915ZM46.4048 72.8617C43.5643 72.8617 40.5628 71.0907 40.5628 67.6476C40.5628 64.2068 43.6816 62.4956 46.4048 62.4956C49.128 62.4956 52.1525 64.0228 52.1525 67.6476C52.1525 71.2724 49.2453 72.8617 46.4048 72.8617Z" fill="white"/>
<defs>
<linearGradient id="paint0_linear" x1="13.4734" y1="13.4734" x2="78.5266" y2="78.5266" gradientUnits="userSpaceOnUse">
<stop stop-color="#33BEF0"/>
<stop offset="1" stop-color="#0A85D9"/>
</linearGradient>
</defs>
</svg>
