<svg width="42" height="42" viewBox="0 0 42 42" fill="none" xmlns="http://www.w3.org/2000/svg">
<g clip-path="url(#clip0)">
<path d="M32.1429 0.214294H9.85715C4.53155 0.214294 0.214294 4.53155 0.214294 9.85715V32.1429C0.214294 37.4685 4.53155 41.7857 9.85715 41.7857H32.1429C37.4685 41.7857 41.7857 37.4685 41.7857 32.1429V9.85715C41.7857 4.53155 37.4685 0.214294 32.1429 0.214294Z" fill="white" stroke="white"/>
<path fill-rule="evenodd" clip-rule="evenodd" d="M7.04615 29.4728H6.0683V16.4059H7.04615V29.4728ZM6.5433 13.2028C6.13093 13.2028 5.78992 12.8757 5.78992 12.4633C5.78992 12.0387 6.1292 11.7099 6.5433 11.7099C6.96785 11.7099 7.30539 12.037 7.30539 12.4633C7.30539 12.8757 6.96785 13.2028 6.5433 13.2028Z" fill="#1E263D"/>
<path fill-rule="evenodd" clip-rule="evenodd" d="M16.5439 29.7279C11.7626 29.7279 8.742 26.2462 8.742 20.7116C8.742 15.2047 11.7765 11.7092 16.5439 11.7092C21.3114 11.7092 24.3441 15.2049 24.3441 20.7116C24.3441 26.2464 21.3236 29.7279 16.5439 29.7279ZM16.5439 12.6086C12.3821 12.6086 9.72515 15.7509 9.72515 20.7114C9.72515 25.6755 12.3943 28.83 16.5439 28.83C20.7058 28.83 23.3627 25.6755 23.3627 20.7114C23.3627 15.7492 20.7058 12.6086 16.5439 12.6086Z" fill="#1E263D"/>
<path fill-rule="evenodd" clip-rule="evenodd" d="M31.3072 29.7279C27.7177 29.7279 25.1443 27.7008 24.9982 24.8021H25.9569C26.103 27.1789 28.3355 28.8422 31.3802 28.8422C34.352 28.8422 36.426 27.1545 36.426 24.8751C36.426 23.0412 35.1889 21.9868 32.2537 21.2473L30.1797 20.7375C26.9416 19.911 25.4714 18.6008 25.4714 16.4068C25.4714 13.6768 28.0203 11.7107 31.2114 11.7107C34.5104 11.7107 36.974 13.6525 37.0837 16.2242H36.125C35.991 14.1258 33.9414 12.5963 31.187 12.5963C28.5528 12.5963 26.4543 14.1745 26.4543 16.3823C26.4543 18.131 27.7401 19.1368 30.5536 19.8396L32.5075 20.3372C35.8917 21.1741 37.4089 22.4739 37.4089 24.8019C37.4089 27.7005 34.9712 29.7277 31.3069 29.7277L31.3072 29.7279Z" fill="#1E263D"/>
</g>
<defs>
<clipPath id="clip0">
<rect width="42" height="42" fill="white"/>
</clipPath>
</defs>
</svg>
