<svg width="82" height="36" viewBox="0 0 82 36" fill="none" xmlns="http://www.w3.org/2000/svg">
<path d="M5.51266 16.0315C10.4679 15.7243 11.5138 13.9023 11.5138 5.57638V0H7.01437V5.64675C7.01437 12.3919 7.01281 12.3975 5.06994 12.2376C4.22582 12.1681 3.69961 11.9871 3.32571 11.6384L2.79006 11.1387L1.58398 12.1875C0.920515 12.7643 0.281379 13.3244 0.163702 13.4321C-0.835166 14.3453 2.95969 16.1896 5.51266 16.0315Z" fill="white"/>
<path d="M25.9121 3.79771V0H12.8637V16.3078H25.9121V12.2867H17.3631V9.82937H24.7873V6.25505H17.3631V3.79771H25.9121Z" fill="white"/>
<path d="M40.7603 3.79771V0H26.812V3.79771H31.7614V16.0844H35.8109V3.79771H40.7603Z" fill="white"/>
<path fill-rule="evenodd" clip-rule="evenodd" d="M45.9831 35.6205C46.051 35.5531 44.631 31.8335 42.8274 27.3549L39.5482 19.212H35.2406L32.1144 26.4723C30.3949 30.4655 28.9184 33.7326 28.833 33.7326C28.6527 33.7326 26.587 30.6973 26.587 30.4326C26.587 30.3348 26.8968 30.073 27.2757 29.8507C29.8888 28.318 30.4629 24.0433 28.3598 21.7776C26.7198 20.011 25.8548 19.7899 20.2315 19.6996L15.3384 19.621V35.7593L19.7254 35.6315L19.8531 30.8285L21.9751 30.8394L25.239 35.7432H32.4645L33.7907 32.839H40.0179L41.2609 35.7432H43.5604C44.8249 35.7432 45.9154 35.688 45.9831 35.6205ZM19.8378 27.4776V23.6798L21.3564 23.6812C23.6415 23.683 24.5306 23.9964 24.9276 24.9402C25.6327 26.6161 24.5371 27.4755 21.6939 27.4767L19.8378 27.4776ZM35.7407 29.3233C35.5538 29.0864 35.7951 28.5165 36.2949 27.1543C36.6851 26.0907 36.8846 25.5363 37.0895 25.5344C37.3117 25.5322 37.5403 26.1803 38.0258 27.5334L38.7271 29.4881H37.1565C36.3346 29.4881 35.8938 29.5175 35.7407 29.3233Z" fill="white"/>
<path fill-rule="evenodd" clip-rule="evenodd" d="M12.5359 27.3802C15.1699 25.6665 14.0907 20.9734 10.8425 20.0155C9.90752 19.7398 8.59322 19.6587 5.06115 19.6587H0.490149V35.7432L4.37094 35.7362C11.2002 35.7242 13.3395 35.1418 14.4075 33.0039C15.3271 31.1627 14.6151 28.9513 12.8497 28.1665L11.9453 27.7644L12.5359 27.3802ZM4.53967 26.1372V23.4565H6.6029C8.86299 23.4565 9.48908 23.7306 9.48908 24.7197C9.48908 25.7974 8.78785 26.1372 6.56442 26.1372H4.53967ZM4.53967 31.9455V29.0413L6.62067 29.0637C9.75343 29.0972 10.198 29.327 9.84318 30.7304C9.62653 31.5874 8.63057 31.9455 6.4632 31.9455H4.53967Z" fill="white"/>
<path d="M50.9966 35.6315L51.1147 19.6587H46.6096V35.7593L50.9966 35.6315Z" fill="white"/>
<path d="M62.9202 28.1395L56.4479 19.6587H52.459V35.7593L56.8459 35.6315L57.0709 27.249L63.8201 35.9534L67.5322 35.9666V19.6587H63.0424L62.9202 28.1395Z" fill="white"/>
<path d="M80.328 23.4303C81.8306 21.4367 81.1232 20.5628 77.4566 19.8833C67.9893 18.1289 65.2629 27.5336 74.5783 29.8109C77.1687 30.444 77.8809 30.8356 77.8809 31.6269C77.8809 33.1109 74.9093 33.1569 72.1059 31.7165L70.4307 30.8557L69.648 31.716C69.2177 32.1892 68.673 32.8191 68.4381 33.1158L68.0107 33.6553L69.1774 34.3458C73.7326 37.0415 79.9595 36.3448 81.5046 32.9666C83.0299 29.6318 80.9768 26.9394 76.1228 25.9087C73.512 25.3544 72.4809 24.5998 73.1844 23.7583C73.6834 23.1611 76.2062 23.4388 77.8287 24.2698L79.1757 24.9597L80.328 23.4303Z" fill="white"/>
</svg>
