<svg width="37" height="42" viewBox="0 0 37 42" fill="none" xmlns="http://www.w3.org/2000/svg">
<g clip-path="url(#clip0)">
<path d="M18.0385 10.1145C18.1202 10.1555 18.1856 10.2539 18.2836 10.2539C18.3735 10.2539 18.5124 10.2211 18.5205 10.1309C18.5369 10.016 18.3653 9.94221 18.2591 9.89299C18.1202 9.83557 17.9405 9.81096 17.8098 9.88479C17.7771 9.90119 17.7444 9.94221 17.7608 9.97502C17.7853 10.0817 17.9487 10.0653 18.0385 10.1145ZM16.2494 10.2539C16.3474 10.2539 16.4128 10.1555 16.4945 10.1145C16.5843 10.0653 16.7477 10.0817 16.7804 9.98322C16.7967 9.95041 16.7641 9.9094 16.7314 9.89299C16.6007 9.81916 16.4209 9.84377 16.2821 9.90119C16.1759 9.95041 16.0043 10.0242 16.0206 10.1391C16.0288 10.2211 16.1677 10.2621 16.2494 10.2539ZM34.3125 33.1242C34.0183 32.7961 33.8795 32.1727 33.7242 31.5082C33.5772 30.8438 33.4056 30.1301 32.8664 29.6707C32.7602 29.5805 32.654 29.4985 32.5396 29.4328C32.4334 29.3672 32.3191 29.3098 32.2047 29.2688C32.9563 27.0293 32.6622 24.7981 31.9024 22.7801C30.9711 20.311 29.3453 18.1535 28.1035 16.677C26.7065 14.9133 25.3504 13.2399 25.3749 10.7707C25.4157 7.00549 25.7915 0.00822685 19.1823 2.37213e-05C10.8166 -0.0163825 12.908 8.48205 12.8181 11.0906C12.6792 13.0102 12.2953 14.5196 10.98 16.3981C9.4359 18.2438 7.26277 21.2215 6.2334 24.3305C5.74322 25.7988 5.51447 27.2918 5.72688 28.7028C5.19585 29.1785 4.79554 29.9086 4.37072 30.3598C4.02759 30.7125 3.52925 30.8438 2.98188 31.0406C2.43451 31.2375 1.83813 31.5328 1.4705 32.2301C1.29893 32.55 1.24175 32.8945 1.24175 33.2473C1.24175 33.5672 1.29076 33.8953 1.33978 34.2153C1.43782 34.8797 1.54402 35.5031 1.40514 35.9215C0.980318 37.1028 0.923131 37.9231 1.22541 38.5219C1.53585 39.1207 2.15675 39.3832 2.86751 39.5309C4.28085 39.8262 6.20072 39.7524 7.7121 40.5563C9.32969 41.4094 10.9718 41.7129 12.2789 41.4094C13.2266 41.1961 14.0027 40.6219 14.3949 39.7524C15.4161 39.7442 16.5435 39.3094 18.3408 39.211C19.5581 39.1125 21.0858 39.6457 22.8423 39.5473C22.8913 39.736 22.9567 39.9246 23.0465 40.0969V40.1051C23.7246 41.475 24.9909 42.0985 26.3389 41.9918C27.695 41.8852 29.1247 41.0895 30.2848 39.7031C31.3959 38.3578 33.2259 37.8 34.4432 37.0617C35.0477 36.6926 35.5379 36.2332 35.5788 35.5606C35.6114 34.8879 35.2193 34.1414 34.3125 33.1242ZM18.2754 7.16135C19.0761 5.34026 21.0695 5.37307 21.8701 7.12854C22.4011 8.29338 22.1642 9.6633 21.5188 10.4426C21.3881 10.377 21.0368 10.2293 20.4894 10.0406C20.5793 9.94221 20.7427 9.81916 20.808 9.6633C21.2002 8.69534 20.7917 7.44846 20.0646 7.42385C19.4682 7.38284 18.929 8.30979 19.1006 9.31057C18.7656 9.14651 18.3326 9.02346 18.0385 8.94963C17.9568 8.38362 18.014 7.75198 18.2754 7.16135ZM14.9504 6.21799C15.7755 6.21799 16.6497 7.38284 16.5108 8.96604C16.2249 9.04807 15.9308 9.17112 15.6775 9.34338C15.7755 8.6133 15.4079 7.69455 14.8932 7.73557C14.207 7.79299 14.0926 9.47463 14.7462 10.0406C14.8279 10.1063 14.9014 10.0242 14.2642 10.4918C12.9897 9.29416 13.4063 6.21799 14.9504 6.21799ZM13.8393 11.1973C14.3459 10.8199 14.9504 10.377 14.9913 10.336C15.3752 9.97502 16.0942 9.17112 17.2706 9.17112C17.8506 9.17112 18.545 9.35979 19.3865 9.90119C19.9012 10.2375 20.3097 10.2621 21.2329 10.6641C21.9191 10.9512 22.3521 11.4598 22.0907 12.1571C21.8783 12.7395 21.192 13.3383 20.2362 13.6418C19.3293 13.9371 18.6186 14.9543 17.1154 14.8641C16.7967 14.8477 16.5435 14.7821 16.3311 14.6918C15.6775 14.4047 15.3344 13.8387 14.6971 13.4614C13.9946 13.0676 13.6188 12.6082 13.4962 12.2063C13.3818 11.8043 13.4962 11.468 13.8393 11.1973ZM14.1089 38.5957C13.8884 41.475 10.5225 41.4176 7.95719 40.0723C5.51447 38.7762 2.35282 39.5391 1.70742 38.2758C1.51134 37.8903 1.51134 37.234 1.91983 36.1102V36.0938C2.1159 35.4703 1.96884 34.7813 1.87081 34.1332C1.77277 33.4934 1.72376 32.9028 1.94434 32.4926C2.23027 31.943 2.63876 31.7461 3.15344 31.5656C3.99492 31.2621 4.11746 31.2867 4.75469 30.7535C5.20402 30.286 5.53081 29.6953 5.92295 29.277C6.3396 28.8258 6.73992 28.6125 7.36898 28.711C8.03072 28.8094 8.60259 29.2688 9.15813 30.0235L10.7594 32.9438C11.5355 34.5762 14.2805 36.9141 14.1089 38.5957ZM13.9946 36.4711C13.6596 35.9297 13.2103 35.3555 12.8181 34.8633C13.3982 34.8633 13.9782 34.6828 14.1825 34.1332C14.3704 33.6246 14.1825 32.911 13.5779 32.0906C12.475 30.5977 10.4489 29.4246 10.4489 29.4246C9.34603 28.7356 8.72514 27.8906 8.4392 26.9719C8.15326 26.0531 8.19411 25.0606 8.41469 24.0844C8.83951 22.2059 9.93425 20.3766 10.6368 19.2281C10.8247 19.0887 10.7022 19.4906 9.92608 20.9344C9.23166 22.2551 7.93268 25.3067 9.71367 27.6938C9.76268 25.9957 10.163 24.2649 10.8411 22.6488C11.8214 20.4012 13.8884 16.5047 14.0517 13.4039C14.1416 13.4696 14.4275 13.6664 14.5583 13.7403C14.9341 13.9617 15.22 14.2899 15.5876 14.5852C16.6007 15.4055 17.916 15.3399 19.0516 14.6836C19.5581 14.3965 19.9666 14.0684 20.3505 13.9453C21.1593 13.691 21.8047 13.2399 22.1724 12.7149C22.8014 15.2086 24.272 18.8098 25.2115 20.5653C25.7098 21.5004 26.7065 23.4774 27.1395 25.8645C27.4091 25.8563 27.7114 25.8973 28.03 25.9793C29.1574 23.0508 27.0742 19.8926 26.1265 19.0149C25.7425 18.6375 25.7262 18.4735 25.9141 18.4817C26.9434 19.4004 28.2996 21.2461 28.7898 23.3215C29.0185 24.2731 29.0594 25.2656 28.8225 26.25C30.1623 26.8078 31.7554 27.7184 31.3305 29.1047C31.1508 29.0965 31.0691 29.1047 30.9874 29.1047C31.2488 28.2762 30.6688 27.661 29.1247 26.9637C27.5235 26.2582 26.1837 26.2582 25.9958 27.9891C25.0072 28.3336 24.5007 29.1949 24.2475 30.2285C24.0187 31.1473 23.9534 32.2547 23.888 33.5016C23.8471 34.1332 23.5939 34.9781 23.3325 35.8805C20.71 37.759 17.0663 38.5793 13.9946 36.4711ZM35.0232 35.5278C34.9497 36.9059 31.6573 37.1602 29.86 39.3422C28.7816 40.6301 27.4581 41.3438 26.298 41.434C25.1379 41.5242 24.1331 41.0402 23.5449 39.8508C23.1609 38.9403 23.3488 37.9559 23.6347 36.8731C23.937 35.7082 24.3863 34.5106 24.4435 33.5426C24.5089 32.2957 24.5824 31.2047 24.7867 30.368C24.9991 29.5231 25.3259 28.9571 25.9059 28.6371C25.9304 28.6207 25.9631 28.6125 25.9876 28.5961C26.053 29.6789 26.584 30.7781 27.5235 31.016C28.5529 31.2867 30.0316 30.4008 30.6606 29.6789C31.3959 29.6543 31.9433 29.6051 32.507 30.0973C33.3158 30.7945 33.087 32.5828 33.904 33.5098C34.77 34.4613 35.0477 35.1094 35.0232 35.5278ZM14.158 12.1981C14.3213 12.3539 14.5419 12.5672 14.8115 12.7805C15.3507 13.2071 16.1023 13.65 17.0418 13.65C17.9895 13.65 18.88 13.166 19.6398 12.7641C20.0401 12.5508 20.5303 12.1899 20.8489 11.911C21.1675 11.6321 21.3309 11.3942 21.1021 11.3696C20.8734 11.3449 20.8897 11.5828 20.612 11.7879C20.2525 12.0504 19.8195 12.3949 19.4764 12.5918C18.8718 12.9364 17.8833 13.4285 17.0337 13.4285C16.184 13.4285 15.5059 13.0348 14.9994 12.6328C14.7462 12.4278 14.5338 12.2227 14.3704 12.0668C14.2478 11.952 14.2151 11.6895 14.0191 11.6649C13.9047 11.6567 13.872 11.9684 14.158 12.1981Z" fill="#F1F1F1"/>
</g>
<defs>
<clipPath id="clip0">
<rect width="36.6" height="42" fill="white"/>
</clipPath>
</defs>
</svg>
