<svg width="26" height="30" viewBox="0 0 26 30" fill="none" xmlns="http://www.w3.org/2000/svg">
<path d="M12.45 0C9.40651 0 7.86302 2.1875 7.86302 6.50406V9.7561C7.86302 9.99746 7.79647 10.2846 7.68129 10.5158C7.64289 10.5945 7.45859 10.8537 7.29477 11.0798C6.38353 12.345 4.36905 15.841 3.99534 19.6418C4.14124 19.6138 4.2897 19.5935 4.45608 19.5935C4.85795 19.5935 5.91766 19.5935 7.60705 22.3603C7.92957 22.8201 8.09851 23.1021 8.33144 23.4883C8.48759 23.7525 8.67956 24.0752 8.98672 24.5605L9.00208 24.5833L9.02 24.6113C9.19662 24.9238 9.38091 25.1728 9.56009 25.409C9.66248 25.5462 9.76743 25.6885 9.86981 25.8359C10.2717 25.6758 10.6812 25.437 10.9244 25.0915C11.2444 24.563 11.2085 23.9355 10.8297 23.3714C10.6736 23.1352 10.3843 22.9675 9.6932 22.5737C9.27853 22.3399 8.76403 22.0478 8.52854 21.8471C7.97821 21.3796 7.20774 20.3608 7.20774 19.5528C7.20774 17.8252 8.3724 15.1905 9.30668 13.628C9.84166 12.7363 10.2486 12.0478 10.4099 11.4609C10.5021 11.5244 10.6044 11.5854 10.7478 11.6336L10.7708 11.6413L10.7964 11.6489C11.252 11.7683 11.7102 11.748 12.0072 11.748C12.624 11.748 13.0694 11.4533 13.4841 11.2068C13.8911 10.9604 14.2929 10.7317 14.3518 10.7114C14.6487 11.2678 15.0327 11.7835 15.432 12.3196C16.5276 13.783 17.8432 16.2449 18.2323 19.9009C18.7417 19.6341 19.0335 19.5528 19.658 19.5528C19.6708 19.5528 19.6862 19.5554 19.699 19.5554C19.7553 19.5528 19.8091 19.5478 19.8654 19.5478C20.0292 19.5478 20.1956 19.5579 20.3594 19.5732C20.7459 19.596 21.263 19.7281 21.5676 19.8323C22.0795 19.9822 22.5019 20.249 22.7988 20.5894C23.065 20.592 23.321 20.6529 23.5564 20.7673C23.5564 20.343 23.5897 19.7205 23.5897 19.5528C23.5897 17.406 22.1717 14.4436 21.1043 12.9243C20.8841 12.6092 20.6717 12.3145 20.4669 12.0325C19.5224 10.7342 18.775 9.70782 18.3475 7.93953C18.0659 6.79116 18.0275 6.43547 17.9891 6.09248C17.9533 5.74695 17.9123 5.38618 17.6794 4.41565C17.2545 2.44919 16.7298 0 12.45 0ZM10.4841 3.90244C11.2085 3.90244 11.7947 5.21087 11.7947 6.29065C11.7947 6.35671 11.787 6.46087 11.7819 6.55488C11.7333 6.55234 11.6846 6.54472 11.6334 6.54472C11.4466 6.54472 11.2725 6.57266 11.1061 6.61585C11.0268 6.20173 10.7862 5.89431 10.4841 5.89431C10.1232 5.89431 9.82886 6.3313 9.82886 6.86992C9.82886 7.00203 9.84678 7.12652 9.88005 7.24085C9.70344 7.37297 9.56777 7.48476 9.48842 7.56352C9.46539 7.58384 9.44747 7.59909 9.42699 7.61687C9.37836 7.51524 9.3374 7.41108 9.30157 7.29675C9.22733 6.84197 9.17358 6.29065 9.17358 6.29065C9.17358 5.21087 9.75975 3.90244 10.4841 3.90244ZM13.7605 3.90244C14.4849 3.90244 15.0711 5.21087 15.0711 6.29065C15.0711 6.69207 14.9841 7.16463 14.8433 7.53811C14.6615 7.46189 14.4875 7.40346 14.3134 7.36026C14.3723 7.21545 14.4158 7.05285 14.4158 6.86992C14.4158 6.3313 14.1214 5.89431 13.7605 5.89431C13.3996 5.89431 13.1053 6.3313 13.1053 6.86992C13.1053 6.87246 13.1053 6.875 13.1053 6.87754C12.9107 6.79878 12.6957 6.72256 12.4705 6.66413C12.4602 6.52693 12.45 6.3872 12.45 6.29065C12.45 5.21087 13.0361 3.90244 13.7605 3.90244ZM11.6334 7.84553C11.8996 7.84553 12.2862 7.9497 12.6394 8.09197C12.9926 8.23425 13.2921 8.39177 13.543 8.49593L13.5942 8.5188L13.6479 8.52896C13.9807 8.60772 14.2801 8.69156 14.403 8.75508C14.3697 9.03455 14.3365 9.18699 14.3211 9.20986C14.3032 9.2378 14.211 9.32419 13.8757 9.50203C13.4611 9.64939 13.1462 9.88821 12.8083 10.0915C12.4372 10.3125 12.0609 10.4472 12.0072 10.4472C11.7205 10.4472 11.3237 10.4268 11.165 10.3938C11.2264 10.4116 11.1189 10.3582 10.9833 10.2337C10.8374 10.0965 10.6556 9.90854 10.4713 9.71291L10.4227 9.66463L10.3715 9.62906C10.1616 9.48171 9.9978 9.34959 9.91845 9.25559C9.83654 9.15904 9.82886 9.1311 9.82886 9.06758C9.82886 8.97104 9.81094 9.02947 9.86981 8.96341C9.92869 8.89482 10.1079 8.75508 10.351 8.54167L10.3741 8.52388L10.3946 8.50102C10.3587 8.53913 10.5968 8.30793 10.8553 8.14024C11.1138 7.97256 11.4338 7.84553 11.6334 7.84553ZM19.8654 20.8511C19.2536 20.8511 18.8287 21.0315 18.7135 21.1763C18.9797 21.4812 19.1435 21.7759 19.3125 22.3095C19.4942 22.7058 19.9499 22.8049 20.3133 22.8049C21.4242 22.8049 21.6392 22.1418 21.9899 21.7683C21.9899 21.7683 21.8978 21.6667 21.8978 21.5676C21.8056 21.3694 21.5343 21.1712 21.1708 21.0722C20.8969 20.9731 20.4413 20.874 20.2596 20.874C20.1213 20.8562 19.9908 20.8511 19.8654 20.8511ZM4.45608 20.8943C4.00046 20.8943 3.77521 21.1179 3.47061 21.4202C3.166 21.72 2.84348 22.1875 2.31107 22.5635C1.84265 23.1682 0.442499 22.5864 0.0406293 23.4959C-0.182063 23.9939 0.583282 24.6494 0.583282 25.7749C0.583282 26.2271 0.20189 26.5269 0.127659 26.8293C0.050868 27.2027 -0.0259222 27.4289 0.127659 27.7287C0.429701 28.1784 0.811094 28.3308 3.39382 28.8542C4.76069 29.1565 6.05333 29.9085 6.88778 29.9822C7.72224 30.0559 9.1659 29.9822 9.1659 27.9548C9.24269 26.753 8.55926 26.4533 7.87582 25.2515C7.1156 24.0473 7.04136 23.8237 6.50895 23.0716C6.05333 22.3196 5.06529 20.8943 4.45608 20.8943ZM17.8458 22.1926C17.6922 22.4975 17.6922 22.7287 17.6922 23.4959C17.6922 24.1108 17.6922 24.8018 17.6154 25.3404C17.4593 26.6463 17.0369 27.2332 17.0369 28.0005C17.0369 28.8465 17.2699 29.3852 17.5796 29.6164C17.81 29.8476 18.199 30 19.0514 30C19.9012 30 20.4439 29.6926 20.9865 29.1565C21.373 28.7703 21.6828 28.6179 22.7681 27.8481C23.6179 27.3095 24.9361 26.6184 25.1665 26.3897C25.3226 26.2348 25.5556 26.156 25.5556 25.6936C25.5556 25.31 25.2458 25.1575 25.0129 25.0813C24.7032 24.9263 24.1631 24.6951 23.6972 24.0041C23.495 23.6712 23.5257 22.815 23.2826 22.2942L22.9472 22.6524C22.9088 22.6931 22.8756 22.7464 22.8372 22.7947C22.5198 23.2215 21.8594 24.1057 20.3133 24.1057C19.2997 24.1057 18.4806 23.6357 18.1197 22.8455L18.0864 22.7744L18.0608 22.6956C17.9789 22.4365 17.9123 22.2967 17.8458 22.1926ZM16.0566 26.3491C15.432 26.8826 14.4772 27.3984 13.1053 27.3984C11.7102 27.3984 10.7683 26.8877 10.1693 26.3643C10.3766 26.7962 10.5149 27.3095 10.4765 27.9954C10.4765 28.2419 10.4534 28.4756 10.4176 28.6992H15.7801C15.7494 28.4756 15.7264 28.247 15.7264 28.0005C15.7264 27.4263 15.8697 26.9588 16.0105 26.5066C16.0259 26.4558 16.0412 26.3999 16.0566 26.3491Z" fill="#1B2A4E"/>
</svg>
