<svg width="123" height="27" viewBox="0 0 123 27" fill="none" xmlns="http://www.w3.org/2000/svg">
<path fill-rule="evenodd" clip-rule="evenodd" d="M11.3881 0.098028C10.7942 0.188706 9.85697 0.393001 9.3053 0.551958C8.75362 0.711095 7.65008 1.17622 6.85317 1.58572C5.77916 2.13773 5.00199 2.72948 3.84955 3.87289C2.55458 5.15773 2.15377 5.70179 1.44995 7.13096C0.985211 8.0744 0.466677 9.37478 0.297515 10.0205C0.0975638 10.7839 -0.00639651 11.8581 0.000304763 13.0913C0.00573823 14.1344 0.143386 15.5947 0.305847 16.3364C0.468488 17.0779 0.883243 18.2764 1.22754 18.9996C1.57184 19.7229 2.09364 20.6603 2.38704 21.0832C2.68045 21.5061 3.31635 22.2519 3.80011 22.7409C4.28387 23.2298 5.27403 24.0176 6.0003 24.4917C6.72675 24.9659 7.9846 25.6091 8.79564 25.9211C9.60685 26.233 10.8739 26.6033 11.6114 26.744C12.3489 26.8849 13.7977 27 14.8308 27C15.8638 27 17.3213 26.9091 18.0693 26.7982C18.8173 26.6873 19.5731 26.4917 19.7488 26.3636C20.0297 26.1586 20.0429 26.0361 19.8578 25.3459C19.7421 24.9146 19.5582 24.3275 19.4492 24.0418C19.2661 23.5617 19.1996 23.5313 18.5761 23.642C18.2049 23.708 17.4122 23.8483 16.8145 23.9538C16.2168 24.0595 14.9536 24.0985 14.0072 24.0407C13.0609 23.9829 11.8384 23.8147 11.2905 23.6671C10.7426 23.5196 9.60866 23.0604 8.77046 22.6471C7.66493 22.1018 6.91348 21.5633 6.03399 20.6862C5.20086 19.8553 4.61458 19.0574 4.1598 18.1356C3.79576 17.3979 3.37811 16.2253 3.23159 15.5298C3.08525 14.8344 2.96535 13.7371 2.96498 13.0913C2.9648 12.4455 3.08742 11.3971 3.23756 10.7617C3.38789 10.1262 3.80174 9.05397 4.15727 8.37913C4.51298 7.7041 5.19452 6.74567 5.67194 6.24911C6.14918 5.75255 6.97706 5.06886 7.51153 4.72981C8.046 4.39094 8.97222 3.93105 9.56991 3.70797C10.1678 3.48471 11.284 3.2582 12.0516 3.20419C12.8445 3.14837 13.9386 3.20093 14.5872 3.32575C15.2146 3.44678 16.33 3.83225 17.0661 4.18267C18.0141 4.63407 18.7535 5.17001 19.6017 6.02025C20.2602 6.68046 21.0613 7.71512 21.3821 8.31916C21.7027 8.92338 22.0899 9.89554 22.2424 10.4797C22.3949 11.0637 22.5197 12.1802 22.5197 12.9607C22.5197 14.3489 22.5287 14.3774 22.9272 14.2566C23.1514 14.1886 23.6004 13.9347 23.9249 13.6921C24.2497 13.4495 24.6936 12.9103 24.9117 12.4938C25.217 11.9103 25.3078 11.4257 25.307 10.3818C25.3065 9.63669 25.1707 8.5762 25.0051 8.02509C24.8398 7.47398 24.3879 6.53487 24.0012 5.93824C23.6143 5.34143 22.8757 4.43195 22.3596 3.91732C21.8436 3.40252 20.9251 2.64531 20.3186 2.23455C19.7122 1.82397 18.7338 1.29237 18.1446 1.05357C17.5553 0.814778 16.5666 0.505174 15.9477 0.365545C15.3287 0.225916 14.2925 0.0716556 13.645 0.0225236C12.9975 -0.0266085 11.982 0.00735044 11.3881 0.098028ZM69.5903 2.25334C69.43 2.34672 69.1995 2.89205 69.0772 3.46719C68.9551 4.04142 68.8823 4.79574 68.9155 5.14346L68.9758 5.77567L70.6058 5.82173C71.5023 5.84702 72.346 5.79644 72.4806 5.70938C72.6153 5.62231 72.8381 5.07319 72.9759 4.48921C73.1136 3.90522 73.2277 3.17203 73.2291 2.85972C73.2309 2.50676 73.1237 2.25045 72.9455 2.18235C72.7879 2.12202 72.0341 2.07523 71.2702 2.07812C70.5064 2.08119 69.7504 2.15995 69.5903 2.25334ZM75.8129 2.37291C75.6716 2.42981 75.5865 2.82522 75.5865 3.42456C75.5865 3.95273 75.4269 5.30747 75.2319 6.43516C75.0368 7.56267 74.4598 10.5986 73.9494 13.1816C73.2344 16.8017 73.0407 18.1342 73.105 18.9958C73.1581 19.7057 73.3311 20.3435 73.5794 20.7442C73.8103 21.1168 74.3075 21.5377 74.7949 21.773C75.3755 22.0532 75.9766 22.1755 76.8255 22.1861C77.4889 22.1943 78.3373 22.1392 78.7107 22.0635C79.3829 21.9273 79.3899 21.9168 79.3899 21.0536C79.3899 20.5736 79.3428 19.9459 79.2851 19.6584C79.1876 19.1726 79.1299 19.1405 78.4677 19.2034C78.014 19.2465 77.5915 19.1642 77.3047 18.9768C76.9507 18.7455 76.8543 18.5298 76.8543 17.9686C76.8543 17.5759 77.383 14.5172 78.0294 11.1717C78.6756 7.82621 79.2586 4.56074 79.3249 3.91479C79.4294 2.89747 79.401 2.70817 79.1114 2.49701C78.8959 2.33968 78.2916 2.25839 77.4083 2.26761C76.6553 2.27537 75.9375 2.32288 75.8129 2.37291ZM83.3745 2.98959C83.3745 3.4036 83.2468 4.60626 83.0907 5.66223C82.9345 6.71803 82.2418 10.7481 81.5514 14.6178C80.8608 18.4875 80.3569 21.7098 80.4315 21.7786C80.5061 21.8475 80.9991 21.9936 81.5269 22.1036C82.0549 22.2136 83.2399 22.3036 84.1603 22.3036C85.0808 22.3036 86.3136 22.1789 86.8999 22.0266C87.4862 21.8744 88.3751 21.5288 88.8753 21.259C89.3757 20.9891 90.2078 20.3576 90.7247 19.8558C91.2414 19.3538 91.919 18.4402 92.2301 17.8255C92.5413 17.2106 92.9162 16.1987 93.0631 15.5768C93.2101 14.9549 93.3317 13.8308 93.3331 13.079C93.3346 12.327 93.2116 11.2945 93.0596 10.7844C92.9078 10.2743 92.5648 9.59768 92.2975 9.28085C92.0302 8.96402 91.4819 8.55543 91.0793 8.37317C90.6555 8.18116 89.9227 8.0399 89.3382 8.03755C88.7833 8.03539 87.9377 8.16652 87.4592 8.32928C86.9591 8.49907 86.239 8.9595 85.7656 9.41199C85.3126 9.84478 84.9239 10.1791 84.9018 10.1549C84.8799 10.1307 85.1007 8.72901 85.3926 7.0401C85.6846 5.35118 85.8999 3.60356 85.8715 3.1565L85.8195 2.34365L84.597 2.29019L83.3745 2.2369V2.98959ZM120.482 2.38881C120.47 2.46323 120.469 2.58389 120.481 2.65669C120.492 2.72948 120.422 3.54938 120.325 4.47873C120.229 5.40808 120.059 6.58816 119.949 7.10097L119.749 8.03358H118.443C117.725 8.03358 116.658 8.15822 116.072 8.31049C115.486 8.46276 114.596 8.80831 114.095 9.07818C113.593 9.34804 112.763 9.98586 112.25 10.4954C111.738 11.005 111.069 11.8585 110.765 12.3921C110.461 12.9257 110.025 13.9719 109.796 14.717C109.484 15.7323 109.378 16.5244 109.372 17.8781C109.366 19.4156 109.428 19.8119 109.788 20.5411C110.02 21.0124 110.468 21.5808 110.783 21.8043C111.218 22.1135 111.67 22.2266 112.672 22.277C113.81 22.3343 114.122 22.2783 114.973 21.8628C115.532 21.5902 116.314 20.9867 116.782 20.4685C117.235 19.9662 117.605 19.4824 117.605 19.3939C117.605 19.3052 117.671 19.2328 117.75 19.2328C117.83 19.2328 117.891 19.8628 117.886 20.6327L117.877 22.0326H119.054C120.001 22.0326 120.22 21.9802 120.172 21.7644C120.139 21.617 120.206 20.6952 120.32 19.7162C120.434 18.7371 121.044 15.0781 121.676 11.5848C122.307 8.09174 122.879 4.73143 122.947 4.11764C123.016 3.50386 123.018 2.83317 122.952 2.62743C122.848 2.30012 122.688 2.25334 121.668 2.25334C121.027 2.25334 120.494 2.31439 120.482 2.38881ZM97.439 2.56944C97.393 2.64386 97.2659 3.18721 97.1566 3.77679C97.0474 4.3662 96.9581 4.9556 96.9581 5.08638C96.9581 5.26394 97.341 5.32409 98.4726 5.32409H99.9871L100.193 4.30045C100.307 3.73741 100.399 3.08714 100.399 2.85538C100.399 2.44932 100.347 2.43397 98.9611 2.43397C98.17 2.43397 97.4852 2.49502 97.439 2.56944ZM10.2422 6.39434C9.91457 6.47761 9.16873 6.83978 8.58482 7.19942C7.71764 7.73319 7.34852 7.85295 6.57136 7.85295C5.67701 7.85295 5.63698 7.87191 5.90539 8.16905C6.06242 8.34282 6.24589 8.70463 6.31309 8.97287C6.38227 9.24978 6.30294 9.98658 6.12944 10.6768C5.91409 11.5328 5.86084 12.1905 5.94959 12.8984C6.01877 13.4517 6.27107 14.4226 6.51014 15.056C6.74921 15.6897 7.3094 16.7177 7.75513 17.3405C8.20067 17.9631 8.99504 18.8148 9.52028 19.2328C10.0457 19.6508 10.8457 20.1804 11.2983 20.4096C11.7507 20.639 12.596 20.9643 13.1765 21.1327C13.7725 21.3054 14.878 21.4416 15.7164 21.4454C16.5331 21.4492 17.6439 21.35 18.185 21.2252C18.7262 21.1002 19.6943 20.7443 20.3363 20.4345C20.9784 20.1246 21.9906 19.4226 22.5861 18.8746C23.1815 18.3266 23.9818 17.3961 24.3645 16.8073C24.7474 16.2184 25.2118 15.243 25.3965 14.6397C25.5811 14.0364 25.7872 13.1364 25.8545 12.6397L25.9766 11.7365L25.5354 12.6608C25.2927 13.1691 24.8005 13.8088 24.4413 14.0819C24.0821 14.3552 23.4825 14.6875 23.1087 14.8205C22.7348 14.9536 22.0216 15.0642 21.5235 15.0663C21.0209 15.0685 20.2956 14.9229 19.8935 14.7388C19.495 14.5566 18.9367 14.1733 18.6527 13.8872C18.3689 13.601 17.9885 13.0776 17.8076 12.7241C17.6266 12.3704 17.4184 11.7597 17.3447 11.3668C17.2708 10.9741 17.0931 10.3683 16.9496 10.0205C16.8062 9.67282 16.3728 8.96763 15.9863 8.45337C15.469 7.76534 14.9838 7.37192 14.1474 6.96315C13.4003 6.59791 12.6389 6.37953 11.9244 6.32534C11.3267 6.28018 10.5697 6.31125 10.2422 6.39434ZM11.3622 7.51968C11.5589 7.79966 11.5854 8.00215 11.4566 8.24221C11.3581 8.42573 11.08 8.57548 10.8377 8.57548C10.5954 8.57548 10.3174 8.42573 10.2188 8.24221C10.0901 8.00215 10.1165 7.79966 10.3132 7.51968C10.4635 7.30563 10.6995 7.13042 10.8377 7.13042C10.9759 7.13042 11.2119 7.30563 11.3622 7.51968ZM38.0845 8.09951C37.6301 8.22162 37.008 8.49943 36.7021 8.71673C36.396 8.93403 35.8941 9.39772 35.5866 9.74688C35.2793 10.096 34.9844 10.3818 34.9317 10.3818C34.8788 10.3818 34.8355 9.93763 34.8355 9.39465C34.8355 8.60366 34.766 8.37046 34.4852 8.22053C34.2925 8.11775 33.6201 8.03484 32.991 8.03629C32.3618 8.03791 31.7614 8.09879 31.6566 8.17176C31.5519 8.24474 31.3699 9.27994 31.2523 10.4721C31.1348 11.6643 30.6704 14.6455 30.2203 17.097C29.7703 19.5485 29.4021 21.6717 29.4021 21.8151C29.4021 21.9921 29.6775 22.1068 30.2595 22.1724C30.7311 22.2253 31.5427 22.225 32.0628 22.1713L33.0088 22.074L33.1877 21.1502C33.2861 20.6421 33.6182 18.9263 33.926 17.3374C34.3009 15.4018 34.6732 14.0423 35.0545 13.2174C35.3673 12.5404 35.8516 11.7949 36.1307 11.5606C36.4098 11.3265 36.8877 11.0803 37.1931 11.0133C37.5696 10.9309 37.8904 10.9848 38.1907 11.1809C38.4341 11.3401 38.6882 11.6889 38.7554 11.956C38.8288 12.2476 38.5698 14.2163 38.1079 16.8759C37.6845 19.3148 37.2987 21.4819 37.2507 21.6916C37.1714 22.038 37.2603 22.0828 38.218 22.1769C38.7981 22.2338 39.6363 22.2246 40.0808 22.1565L40.8888 22.0326L41.5484 18.4109C41.9112 16.4191 42.3469 14.3725 42.5166 13.863C42.6862 13.3536 43.0554 12.6195 43.3371 12.2317C43.6187 11.844 44.1508 11.384 44.5196 11.2095C44.9014 11.0288 45.3726 10.938 45.6146 10.9985C45.8482 11.057 46.1674 11.2324 46.3237 11.3885C46.4802 11.5444 46.608 11.9734 46.608 12.3415C46.608 12.7096 46.2809 14.8783 45.8812 17.1606C45.4815 19.4427 45.116 21.4819 45.0689 21.6918C44.9934 22.0297 45.0843 22.0852 45.8658 22.1775C46.351 22.2347 47.1916 22.236 47.7335 22.1802L48.7189 22.0788L49.5704 17.269C50.061 14.4972 50.4196 11.9221 50.4167 11.1918C50.4131 10.3092 50.3089 9.73351 50.074 9.29512C49.8884 8.94903 49.4628 8.50539 49.1281 8.30959C48.6744 8.04406 48.1957 7.95482 47.2468 7.95952C46.2371 7.96458 45.787 8.06302 45.0685 8.43567C44.5705 8.69415 43.8408 9.23768 43.447 9.64374C43.0533 10.0496 42.6753 10.3818 42.6068 10.3818C42.5385 10.3818 42.4319 10.1116 42.3697 9.7812C42.3076 9.45082 42.0336 8.9707 41.761 8.7142C41.4883 8.4577 40.9391 8.15948 40.5407 8.05146C40.1422 7.94344 39.6124 7.85999 39.3634 7.86613C39.1144 7.87227 38.5388 7.97722 38.0845 8.09951ZM58.6093 8.11432C57.9879 8.25558 56.9715 8.64069 56.3504 8.97016C55.7294 9.29945 54.8104 9.97827 54.3082 10.4784C53.8059 10.9786 53.0976 11.954 52.7337 12.646C52.37 13.338 51.9294 14.4325 51.7548 15.0782C51.5597 15.7995 51.4315 16.9489 51.4224 18.0587C51.4092 19.6658 51.4576 19.9539 51.8604 20.6708C52.1094 21.1141 52.5901 21.6628 52.9286 21.8901C53.4272 22.2252 53.788 22.3032 54.8303 22.3017C55.7984 22.3005 56.3406 22.1954 57.0222 21.8767C57.5202 21.6441 58.3148 21.0386 58.788 20.5315C59.2613 20.0245 59.6563 19.667 59.6659 19.7373C59.6755 19.8076 59.6706 20.1517 59.655 20.5019C59.6393 20.8524 59.7121 21.3635 59.8168 21.6379C60.0064 22.1356 60.0115 22.1368 61.5588 22.0848L63.1105 22.0326L63.1997 20.4069C63.2487 19.5128 63.6503 16.6272 64.0922 13.9945C64.5339 11.3617 64.9357 9.03826 64.9846 8.83125C65.0617 8.50539 64.9469 8.42501 64.1268 8.23083C63.6061 8.10746 62.4058 7.97289 61.4595 7.93206C60.3598 7.88438 59.3312 7.95013 58.6093 8.11432ZM66.5593 8.91254C66.444 9.29656 66.3496 9.9062 66.3496 10.2673V10.9237H67.1646C67.6964 10.9237 67.9793 11.0021 67.9788 11.1495C67.9784 11.2738 67.5709 13.6883 67.0732 16.5154C66.5756 19.3423 66.1685 21.7499 66.1685 21.8657C66.1685 21.9824 66.5498 22.1188 67.0259 22.1724C67.4975 22.2253 68.2997 22.2259 68.8084 22.1735L69.7336 22.0783L70.8632 15.6429C71.4844 12.1036 72.0366 8.98425 72.0901 8.71095L72.1875 8.21421H69.4784H66.7693L66.5593 8.91254ZM102.752 9.34317C102.751 9.96418 102.59 11.5093 102.393 12.7768C102.197 14.0445 101.75 16.5923 101.399 18.4387C101.048 20.2852 100.762 21.8695 100.762 21.9594C100.762 22.0494 101.332 22.1229 102.029 22.1229C102.727 22.1229 103.297 22.0619 103.297 21.9874C103.296 21.913 103.591 20.2263 103.951 18.2393C104.312 16.2524 104.771 14.1863 104.972 13.6478C105.174 13.1095 105.657 12.3247 106.046 11.9038C106.434 11.4829 107.027 11.009 107.362 10.8505C107.696 10.6921 108.378 10.5624 108.876 10.5624C109.729 10.5624 109.793 10.5294 109.981 9.99362C110.09 9.68077 110.18 9.15242 110.18 8.81951C110.18 8.23842 110.152 8.21421 109.487 8.21421C109.107 8.21421 108.401 8.34806 107.92 8.51171C107.382 8.69433 106.692 9.14772 106.132 9.68583C105.631 10.1679 105.19 10.5624 105.152 10.5624C105.115 10.5624 105.104 10.2577 105.128 9.88506C105.152 9.5126 105.157 8.98425 105.14 8.71095C105.109 8.22324 105.087 8.21421 103.931 8.21421H102.754L102.752 9.34317ZM95.609 8.56048C95.5527 8.65152 95.4552 9.09859 95.3926 9.55396L95.2788 10.3818H96.1185C96.5803 10.3818 96.9581 10.4625 96.9581 10.5614C96.9581 10.6602 96.5506 13.0785 96.0524 15.9352C95.5543 18.7921 95.0995 21.3529 95.0419 21.6262L94.9371 22.1229H96.2194C96.9245 22.1229 97.5015 22.0465 97.5015 21.9531C97.5015 21.8597 97.9914 18.9945 98.5904 15.5858C99.1893 12.1773 99.7254 9.16488 99.7819 8.89158L99.8848 8.39484H97.7981C96.6506 8.39484 95.6655 8.46945 95.609 8.56048ZM119.356 10.2608C119.401 10.3059 119.265 11.2546 119.054 12.3691C118.843 13.4836 118.43 15.0571 118.137 15.8658C117.843 16.6745 117.297 17.7354 116.925 18.2231C116.552 18.711 115.951 19.3473 115.589 19.6374C115.205 19.9454 114.623 20.2059 114.189 20.2639C113.662 20.3345 113.311 20.2741 112.976 20.0549C112.716 19.8852 112.388 19.4711 112.247 19.1342C112.106 18.7975 111.991 18.0079 111.991 17.3799C111.991 16.7518 112.113 15.7713 112.261 15.2011C112.411 14.6306 112.699 13.8377 112.903 13.4388C113.107 13.04 113.57 12.3877 113.93 11.9894C114.291 11.591 114.947 11.0547 115.386 10.7976C115.826 10.5404 116.444 10.264 116.76 10.1835C117.075 10.1027 117.77 10.0688 118.304 10.108C118.837 10.147 119.31 10.2158 119.356 10.2608ZM89.3417 10.4672C89.6389 10.6204 90.0283 11.0848 90.2603 11.5631C90.6066 12.2763 90.651 12.6012 90.5758 13.8711C90.5226 14.7723 90.3322 15.7544 90.0882 16.3873C89.8524 16.9989 89.3227 17.8239 88.7989 18.3956C88.2447 19.0001 87.5499 19.5254 86.9551 19.7893C86.2504 20.102 85.6611 20.2145 84.7026 20.2196C83.9888 20.2232 83.3446 20.1663 83.2712 20.0932C83.1979 20.02 83.3227 18.8414 83.5485 17.474C83.7746 16.1066 84.1111 14.4968 84.2965 13.8966C84.482 13.2961 84.8877 12.4224 85.1983 11.9548C85.5087 11.4873 86.1017 10.902 86.5157 10.6546C87.0042 10.3627 87.5419 10.2041 88.0472 10.2028C88.4754 10.2019 89.0581 10.3209 89.3417 10.4672ZM60.9527 11.0203C61.006 11.0734 60.9033 11.9067 60.7244 12.8718C60.5456 13.8369 60.2719 15.0331 60.1162 15.5298C59.9604 16.0266 59.5853 16.8609 59.2827 17.3838C58.98 17.907 58.3965 18.5775 57.9861 18.8741C57.511 19.2173 57.0189 19.4134 56.6328 19.4134C56.2751 19.4134 55.8828 19.2706 55.6768 19.0652C55.4849 18.8737 55.272 18.3464 55.2039 17.8934C55.1246 17.3665 55.1828 16.6165 55.3653 15.8102C55.5222 15.1173 55.8561 14.1458 56.1074 13.6514C56.3586 13.157 56.8545 12.4712 57.2096 12.1274C57.5646 11.7835 58.1159 11.3738 58.4347 11.217C58.7536 11.0603 59.4286 10.93 59.9351 10.9279C60.4414 10.9255 60.8993 10.9672 60.9527 11.0203ZM15.3352 12.0117C15.8135 12.2499 16.513 12.7783 16.8897 13.1859C17.2664 13.5935 17.8056 14.32 18.0879 14.8004L18.601 15.674L18.07 16.1023C17.7781 16.338 17.0907 16.7471 16.5429 17.0116C15.7641 17.3876 15.27 17.4944 14.2789 17.5009C13.3826 17.5069 12.8253 17.4115 12.3772 17.1756C12.0285 16.9921 11.4731 16.6402 11.1427 16.3934C10.8125 16.1467 10.576 15.9113 10.6171 15.8701C10.6584 15.8291 11.0795 16.0116 11.5533 16.2755C12.1801 16.625 12.6728 16.7556 13.3645 16.7556C14.002 16.7556 14.6362 16.6053 15.2928 16.2988C15.8309 16.0475 16.4177 15.7292 16.5968 15.5918C16.9035 15.3559 16.8801 15.2762 16.1915 14.2139C15.7295 13.5008 15.1551 12.893 14.6294 12.5604C14.172 12.2712 13.4778 11.9806 13.0868 11.9147C12.6701 11.8444 12.4232 11.7181 12.4904 11.6097C12.5552 11.505 13.0089 11.4582 13.5354 11.5017C14.0471 11.544 14.857 11.7736 15.3352 12.0117Z" fill="white"/>
</svg>
