<svg width="34" height="42" viewBox="0 0 34 42" fill="none" xmlns="http://www.w3.org/2000/svg">
<g clip-path="url(#clip0)">
<path d="M30.5156 19.0723L30.2121 18.5391C30.2203 14.7329 28.4566 13.1825 26.3977 12.0012C27.0211 11.8371 27.6609 11.7059 27.8414 10.9184C28.916 10.6477 29.1375 10.1473 29.2441 9.6223C29.523 9.43363 30.4582 8.90863 30.3598 8.00629C30.8848 7.64535 31.1801 7.17777 31.0242 6.52152C31.5902 5.90629 31.7379 5.39769 31.5 4.93012C32.1809 4.08519 31.8773 3.65043 31.5902 3.21566C32.0988 2.29691 31.6477 1.31254 30.2285 1.4766C29.6625 0.648085 28.432 0.836757 28.2434 0.836757C28.0301 0.574257 27.7512 0.344569 26.8898 0.45121C26.332 -0.0491806 25.7086 0.0410538 25.0605 0.278944C24.2977 -0.319884 23.7891 0.164101 23.2066 0.344569C22.2797 0.0492569 22.0664 0.45121 21.6152 0.623476C20.6062 0.410194 20.2945 0.86957 19.8105 1.35355L19.2445 1.34535C17.7187 2.23129 16.9641 4.03598 16.6934 4.96293C16.4227 4.03598 15.668 2.23129 14.1422 1.34535L13.5762 1.35355C13.0922 0.86957 12.7805 0.410194 11.7715 0.623476C11.3121 0.459413 11.107 0.0492569 10.1801 0.344569C9.80273 0.229726 9.45 -0.0163681 9.03984 -0.00816494C8.82656 3.81842e-05 8.58867 0.0738663 8.32617 0.278944C7.67812 0.0328507 7.05468 -0.0491806 6.49687 0.45121C5.63554 0.344569 5.34843 0.566054 5.14335 0.836757C4.95468 0.836757 3.72421 0.648085 3.1582 1.4766C1.73906 1.31254 1.29609 2.29691 1.80468 3.21566C1.51757 3.65863 1.21406 4.0934 1.89492 4.93012C1.65703 5.39769 1.80468 5.90629 2.3707 6.52152C2.22304 7.17777 2.51835 7.64535 3.03515 8.00629C2.93671 8.90863 3.87187 9.43363 4.15078 9.6223C4.25742 10.1473 4.4789 10.6395 5.55351 10.9184C5.73398 11.6977 6.37382 11.8371 6.99726 12.0012C4.93828 13.1825 3.1746 14.7329 3.18281 18.5391L2.87929 19.0723C0.516791 20.4832 -1.60782 25.036 1.71445 28.7274C1.92773 29.884 2.29687 30.7125 2.61679 31.6313C3.10078 35.3391 6.26718 37.07 7.0957 37.275C8.31796 38.1938 9.62226 39.0633 11.3777 39.6704C13.043 41.3602 14.8477 42 16.6523 42H16.7344C18.5473 42 20.3437 41.3602 22.0008 39.6704C23.7645 39.0633 25.0605 38.1938 26.2828 37.275C27.1195 37.07 30.2777 35.3391 30.7617 31.6313C31.0816 30.7125 31.4508 29.884 31.6641 28.7274C34.9945 25.0278 32.8699 20.4832 30.5156 19.0723ZM28.6945 18.4161C28.5715 19.95 20.5816 13.0758 21.9598 12.8461C25.7086 12.2309 28.8176 14.4211 28.6945 18.4161ZM25.1672 26.0532C23.1574 27.3493 20.2617 26.5125 18.7031 24.1829C17.1445 21.8532 17.5055 18.9164 19.5152 17.6204C21.525 16.3243 24.4207 17.161 25.9793 19.4907C27.5379 21.8204 27.1769 24.7571 25.1672 26.0532ZM19.5973 2.40355C19.6629 2.74809 19.7449 2.96137 19.8352 3.02699C20.2781 2.55121 20.6391 2.06723 21.2133 1.60785C21.2133 1.87855 21.0738 2.16566 21.4184 2.37894C21.7219 1.96879 22.1402 1.59965 22.6898 1.28793C22.4273 1.7473 22.6406 1.88676 22.7883 2.07543C23.2066 1.71449 23.6086 1.35355 24.3797 1.06644C24.1664 1.32074 23.8711 1.57504 24.1828 1.87035C24.6176 1.59965 25.0523 1.32894 26.0777 1.14027C25.848 1.39457 25.3641 1.65707 25.6594 1.91137C26.2008 1.70629 26.8078 1.55043 27.4723 1.4684C27.1523 1.7309 26.8898 1.98519 27.1523 2.19027C27.7348 2.0098 28.5387 1.77191 29.318 1.97699L28.8258 2.47738C28.7684 2.54301 29.9824 2.5266 30.7863 2.54301C30.491 2.95316 30.1957 3.33871 30.0234 4.03598C30.1055 4.11801 30.4992 4.06879 30.8766 4.03598C30.491 4.84809 29.8266 5.04496 29.6707 5.3977C29.9086 5.57816 30.2285 5.52894 30.5894 5.4059C30.3105 5.97191 29.7363 6.36566 29.2769 6.82504C29.3918 6.90707 29.5969 6.95629 30.0727 6.89887C29.6461 7.35004 29.1375 7.76019 28.5305 8.12934C28.6371 8.25238 29.0062 8.25238 29.3508 8.26058C28.8012 8.79379 28.0957 9.07269 27.4312 9.42543C27.7594 9.64691 27.9973 9.5977 28.2516 9.5977C27.784 9.98324 26.9883 10.1801 26.25 10.418C26.3894 10.6395 26.5289 10.6969 26.8324 10.7543C26.0531 11.1891 24.9293 10.9922 24.6176 11.2137C24.6914 11.4352 24.9129 11.5746 25.1672 11.6895C23.9039 11.7633 20.4668 11.6403 19.8023 9.03988C21.0902 7.62074 23.4445 5.96371 27.4887 3.90473C24.3387 4.95473 21.5004 6.36566 19.1215 8.2934C16.3078 6.9891 18.2355 3.70785 19.5973 2.40355ZM16.7754 11.8043C18.7605 11.7797 21.2133 13.2645 21.2051 14.6508C21.1969 15.8813 19.4824 16.8739 16.7918 16.8575C14.1586 16.8246 12.3867 15.6106 12.3949 14.4129C12.3949 13.4368 14.5441 11.7469 16.7754 11.8043ZM6.68554 10.7543C6.98906 10.6969 7.12851 10.6313 7.26796 10.418C6.52968 10.1883 5.73398 9.98324 5.2664 9.5977C5.5207 9.5977 5.75859 9.65512 6.08671 9.42543C5.42226 9.07269 4.71679 8.79379 4.16718 8.26058C4.51171 8.25238 4.88085 8.26059 4.98749 8.12934C4.38046 7.76019 3.87187 7.35004 3.44531 6.89887C3.92109 6.95629 4.12617 6.90707 4.24101 6.82504C3.78163 6.36566 3.19921 5.97191 2.92851 5.4059C3.28124 5.52894 3.60937 5.56996 3.84726 5.3977C3.6914 5.05316 3.02695 4.84809 2.6414 4.03598C3.01874 4.06879 3.41249 4.11801 3.49453 4.03598C3.32226 3.33871 3.01874 2.94496 2.73163 2.54301C3.53554 2.5348 4.7496 2.54301 4.69218 2.47738L4.19999 1.97699C4.97929 1.77191 5.7832 2.0098 6.36562 2.19027C6.62812 1.98519 6.35742 1.7309 6.0457 1.4684C6.71015 1.55863 7.30898 1.70629 7.85859 1.91137C8.1457 1.65707 7.66992 1.39457 7.44023 1.14027C8.46562 1.32894 8.90039 1.59965 9.33515 1.87035C9.64687 1.57504 9.35156 1.32074 9.13828 1.06644C9.90937 1.34535 10.3113 1.71449 10.7297 2.07543C10.8691 1.88676 11.0906 1.7473 10.8281 1.28793C11.3777 1.59965 11.7961 1.96879 12.0996 2.37894C12.4359 2.16566 12.3047 1.87035 12.3047 1.60785C12.8789 2.06723 13.2398 2.55121 13.6828 3.02699C13.773 2.96137 13.8469 2.74809 13.9207 2.40355C15.2824 3.70785 17.2102 6.9891 14.4129 8.2934C12.034 6.36566 9.1957 4.95473 6.0457 3.90473C10.0898 5.95551 12.4441 7.62074 13.732 9.03988C13.0758 11.6485 9.63046 11.7633 8.36718 11.6895C8.62148 11.5746 8.84296 11.427 8.91679 11.2137C8.58867 10.984 7.47304 11.1809 6.68554 10.7543ZM11.6156 12.7313C12.9937 12.961 5.0039 19.827 4.88085 18.3012C4.75781 14.3063 7.87499 12.1079 11.6156 12.7313ZM3.13359 28.0547C1.18945 26.5125 0.566009 22.009 4.16718 19.9911C6.34101 19.4168 4.90546 28.834 3.13359 28.0547ZM10.5984 36.1102C9.50742 36.7582 6.8414 36.4957 4.95468 33.8215C3.6832 31.5739 3.84726 29.2934 4.7414 28.6207C6.07851 27.8168 8.1457 28.8997 9.7371 30.7207C11.1234 32.3614 11.7551 35.2571 10.5984 36.1102ZM8.43281 26.2911C6.42304 24.995 6.0621 22.0582 7.6207 19.7286C9.17929 17.3989 12.075 16.5621 14.0848 17.8582C16.0945 19.1543 16.4555 22.0911 14.8969 24.4207C13.3301 26.7504 10.4344 27.5872 8.43281 26.2911ZM16.8164 40.6875C14.4047 40.786 12.0422 38.7434 12.075 38.0379C12.0422 36.9961 15.0117 36.184 16.9394 36.2332C18.8836 36.1512 21.5004 36.8485 21.5086 37.7836C21.5496 38.686 19.1461 40.7286 16.8164 40.6875ZM21.648 30.4418C21.6644 32.8782 19.4988 34.8551 16.8246 34.8715C14.1504 34.8879 11.9684 32.9192 11.9519 30.4911V30.4418C11.9355 28.0055 14.1012 26.0286 16.7754 26.0121C19.4496 25.9957 21.6316 27.9645 21.648 30.3926V30.4418ZM28.391 33.9446C26.3156 36.7829 23.5019 36.8895 22.4602 36.102C21.3691 35.0848 22.1977 31.9266 23.6988 30.1957C25.4133 28.2844 27.2508 27.0375 28.5305 28.0137C29.3918 28.8586 29.9004 32.0414 28.391 33.9446ZM30.2695 27.9399C28.5059 28.711 27.0703 19.302 29.2359 19.8762C32.8371 21.9024 32.2137 26.4059 30.2695 27.9399Z" fill="white"/>
</g>
<defs>
<clipPath id="clip0">
<rect width="33.3867" height="42" fill="white"/>
</clipPath>
</defs>
</svg>
