<svg width="98" height="92" viewBox="0 0 98 92" fill="none" xmlns="http://www.w3.org/2000/svg">
<path d="M66.9274 10.1692L67.3 9.04465C68.059 6.75257 66.8768 4.23831 64.586 3.39266C43.3018 -4.46752 18.8988 4.20203 7.92316 24.5111C0.708059 37.8646 0.951859 53.1746 7.22166 65.8003L19.5359 59.6563C15.2211 50.8485 15.0808 40.1997 20.1017 30.9067C27.8366 16.592 45.2798 10.1102 61.6972 13.1981C63.9719 13.6243 66.2098 12.3388 66.9274 10.1692Z" fill="url(#paint0_radial)"/>
<path d="M30.1182 81.4884L29.7456 82.6129C28.9866 84.905 30.1688 87.4193 32.4596 88.2649C53.7415 96.1251 78.1468 87.4556 89.1201 67.1465C96.3352 53.793 96.0914 38.483 89.8216 25.8573L77.5074 32.0013C81.8222 40.8091 81.9625 51.4579 76.9416 60.7509C69.2067 75.0656 51.7635 81.5474 35.3461 78.4595C33.0737 78.0333 30.8358 79.3188 30.1182 81.4884Z" fill="url(#paint1_radial)"/>
<path d="M16.3228 45.8286C16.3228 50.3719 17.3256 54.9107 19.2921 59.1163L24.9961 56.2597C26.6038 55.4549 28.3955 56.9671 27.8366 58.6561L22.2269 75.6188C21.7347 77.1061 20.1132 77.9177 18.6044 77.4325L1.39576 71.903C-0.317744 71.3521 -0.499444 69.035 1.10596 68.2302L7.00086 65.2761C-1.11354 48.4381 1.86036 27.7005 15.9962 13.7666C24.9777 4.91345 36.7491 0.485718 48.5228 0.485718C48.5228 0.485718 16.3228 14.0886 16.3228 45.8286ZM95.6498 19.7542L78.4412 14.2246C76.9324 13.7394 75.3109 14.5533 74.8187 16.0383L69.209 33.0011C68.6501 34.6901 70.4417 36.2023 72.0495 35.3975L77.7535 32.5409C79.72 36.7464 80.7228 41.2852 80.7228 45.8286C80.7228 77.5686 48.5228 91.1714 48.5228 91.1714C60.2965 91.1714 72.0679 86.746 81.0494 77.8928C95.1852 63.9589 98.1591 43.2214 90.0447 26.3833L95.9396 23.4292C97.5473 22.6244 97.3633 20.3051 95.6498 19.7542Z" fill="url(#paint2_linear)"/>
<defs>
<radialGradient id="paint0_radial" cx="0" cy="0" r="1" gradientUnits="userSpaceOnUse" gradientTransform="translate(59.3006 39.1931) scale(39.1736 38.614)">
<stop offset="0.683" stop-color="#C24717"/>
<stop offset="0.756" stop-color="#BB4417"/>
<stop offset="0.862" stop-color="#A83B18"/>
<stop offset="0.987" stop-color="#892C1A"/>
<stop offset="1" stop-color="#852A1A"/>
</radialGradient>
<radialGradient id="paint1_radial" cx="0" cy="0" r="1" gradientUnits="userSpaceOnUse" gradientTransform="translate(37.745 52.4645) rotate(180) scale(39.1736 38.614)">
<stop offset="0.683" stop-color="#C24717"/>
<stop offset="0.756" stop-color="#BB4417"/>
<stop offset="0.862" stop-color="#A83B18"/>
<stop offset="0.987" stop-color="#892C1A"/>
<stop offset="1" stop-color="#852A1A"/>
</radialGradient>
<linearGradient id="paint2_linear" x1="22.8502" y1="8.82427" x2="72.7406" y2="82.8331" gradientUnits="userSpaceOnUse">
<stop stop-color="#FED100"/>
<stop offset="1" stop-color="#E36001"/>
</linearGradient>
</defs>
</svg>
