<svg width="128" height="20" viewBox="0 0 128 20" fill="none" xmlns="http://www.w3.org/2000/svg">
<path fill-rule="evenodd" clip-rule="evenodd" d="M8.32282 0.352729C7.90784 0.427928 7.18829 0.626837 6.72391 0.794892C6.25942 0.962948 5.52004 1.32168 5.08075 1.59201C4.64157 1.86225 3.92063 2.42356 3.47887 2.83914C3.02817 3.26305 2.42252 3.97317 2.09921 4.4565C1.78214 4.93051 1.3755 5.67217 1.19534 6.10471C1.01528 6.53735 0.78482 7.2939 0.683332 7.78586C0.56855 8.34192 0.498114 9.09956 0.49732 9.78785C0.496626 10.3969 0.558729 11.2228 0.635415 11.6232C0.712102 12.0236 0.891566 12.6852 1.03432 13.0935C1.17698 13.5018 1.48254 14.1664 1.71339 14.5704C1.94415 14.9744 2.38006 15.5995 2.68204 15.9595C2.98413 16.3195 3.56448 16.8948 3.97173 17.2378C4.43363 17.6269 5.12292 18.0656 5.80357 18.4036C6.46746 18.7334 7.2251 19.0222 7.73809 19.1411C8.20188 19.2486 8.92738 19.3669 9.3502 19.4041L10.119 19.4718L10.1189 17.0523C10.1189 15.7217 10.0893 11.3851 10.0531 7.41563L9.9872 0.198364L9.53234 0.207292C9.28214 0.212154 8.7378 0.27763 8.32282 0.352729ZM23.149 0.34509C22.7583 0.416023 22.2003 0.551539 21.9089 0.646281C21.6175 0.741023 20.9995 1.01364 20.5357 1.25213C20.0719 1.49063 19.4306 1.88309 19.1104 2.12416C18.7904 2.36523 18.0649 2.97644 17.4983 3.48249L16.4683 4.40253V10.6834C16.4683 14.1378 16.4967 16.9642 16.5314 16.9642C16.5662 16.9642 16.9311 16.6628 17.3426 16.2946C17.7539 15.9263 19.39 14.5089 20.9784 13.1448C22.5667 11.7807 24.099 10.4637 24.3834 10.2182L24.9007 9.77178L24.9008 4.98507V0.198364L24.38 0.207292C24.0936 0.212253 23.5396 0.274257 23.149 0.34509ZM49.6637 0.406499C49.2331 0.451936 48.5962 0.583781 48.2482 0.699654C47.9002 0.815428 47.4058 1.05134 47.1493 1.22396C46.893 1.39648 46.5378 1.72922 46.3601 1.96344C46.1825 2.19767 45.9867 2.57664 45.925 2.80561C45.8634 3.03458 45.8312 3.47495 45.8536 3.78428C45.8811 4.16523 45.9724 4.46275 46.1366 4.707C46.2699 4.90521 46.578 5.20065 46.8212 5.36344C47.0644 5.52624 47.5555 5.75005 47.9125 5.86076C48.2694 5.97148 49.3363 6.1936 50.2831 6.35432C51.2301 6.51513 52.2009 6.73338 52.4404 6.83934C52.6976 6.95313 52.9238 7.13696 52.9928 7.28844C53.0873 7.49579 53.0794 7.60848 52.9513 7.87694C52.8458 8.09807 52.6431 8.2816 52.3446 8.42604C52.0345 8.57614 51.6261 8.66057 51.0191 8.69985C50.3915 8.74053 49.9029 8.70868 49.3021 8.58795C48.8402 8.49509 48.1349 8.26245 47.7347 8.07088C47.3203 7.87247 46.7879 7.51126 46.4979 7.2317L45.9887 6.74092L45.2094 7.52019L44.4301 8.29955L44.8758 8.73805C45.1208 8.97922 45.57 9.32674 45.8739 9.51037C46.1778 9.694 46.7951 9.97079 47.2459 10.1254C47.6966 10.2801 48.3557 10.4532 48.7103 10.5101C49.065 10.567 49.8686 10.613 50.496 10.6126C51.1235 10.6121 51.9343 10.5486 52.2979 10.4715C52.6615 10.3944 53.1989 10.2179 53.4921 10.0791C53.7853 9.94043 54.2036 9.67426 54.4215 9.48775C54.6395 9.30114 54.9436 8.91721 55.0975 8.63457C55.2741 8.31017 55.3964 7.90928 55.4293 7.54698C55.4598 7.21007 55.4303 6.8187 55.3576 6.59866C55.2896 6.39261 55.0719 6.0439 54.8739 5.82366C54.6681 5.59479 54.259 5.30779 53.9187 5.15352C53.5913 5.00511 52.9886 4.81166 52.5794 4.72356C52.1701 4.63547 51.255 4.47297 50.5456 4.36255C49.8363 4.25213 49.0997 4.11265 48.9087 4.05273C48.7178 3.99281 48.461 3.85223 48.3383 3.74033C48.2156 3.62832 48.1151 3.42852 48.1151 3.29628C48.1151 3.15749 48.2397 2.93934 48.4098 2.78041C48.5719 2.62902 48.9042 2.45481 49.1482 2.3934C49.3922 2.332 49.9627 2.28249 50.416 2.28338C50.8692 2.28438 51.5361 2.34787 51.8979 2.42456C52.2597 2.50124 52.7954 2.68438 53.0884 2.8314C53.3813 2.97842 53.8114 3.25323 54.0439 3.44201L54.467 3.78527L55.2096 3.12049C55.6182 2.75491 55.9524 2.42565 55.9524 2.38884C55.9524 2.35204 55.785 2.16186 55.5804 1.96612C55.3758 1.77049 55.0284 1.49916 54.8083 1.36324C54.5884 1.22733 54.088 1.00055 53.6964 0.859277C53.3049 0.718007 52.7036 0.558582 52.3603 0.504912C52.017 0.451241 51.4459 0.388543 51.0913 0.365626C50.7366 0.342709 50.0941 0.361063 49.6637 0.406499ZM109.425 0.405507C109.015 0.448066 108.323 0.59638 107.887 0.73517C107.45 0.87396 106.818 1.16801 106.482 1.38864C106.146 1.60918 105.62 2.06047 105.314 2.39142C105.007 2.72237 104.65 3.20333 104.52 3.46007C104.39 3.71692 104.208 4.18765 104.115 4.5061C103.99 4.93497 103.956 5.34797 103.984 6.09826C104.019 7.03001 104.051 7.17138 104.392 7.86067C104.653 8.38904 104.932 8.76672 105.338 9.14132C105.654 9.43348 106.142 9.79628 106.421 9.94757C106.701 10.0988 107.275 10.3109 107.697 10.4188C108.227 10.5545 108.793 10.615 109.529 10.615C110.308 10.615 110.764 10.5626 111.225 10.4202C111.571 10.313 112.069 10.0898 112.33 9.92416C112.591 9.75848 112.82 9.62297 112.838 9.62297C112.857 9.62297 112.85 9.82386 112.822 10.0694L112.772 10.5158H113.822H114.872L114.926 10.1934C114.956 10.0161 115.115 8.86652 115.28 7.63884C115.445 6.41116 115.602 5.30561 115.629 5.18209L115.679 4.95759L112.428 4.98368L109.177 5.00987L109.107 5.60511C109.069 5.93249 109.016 6.34549 108.989 6.52277L108.941 6.84519H111.07H113.2L113.057 7.11801C112.978 7.26801 112.765 7.53348 112.583 7.70789C112.401 7.88229 112.006 8.13696 111.706 8.27386C111.406 8.41077 110.845 8.57158 110.46 8.6313C109.95 8.71007 109.571 8.70977 109.072 8.63011C108.695 8.56979 108.201 8.43874 107.976 8.33884C107.75 8.23894 107.386 7.99559 107.167 7.79797C106.949 7.60045 106.668 7.20481 106.543 6.9188C106.386 6.55987 106.314 6.19906 106.311 5.75392C106.308 5.37961 106.38 4.89182 106.483 4.59122C106.585 4.2935 106.85 3.86245 107.107 3.57733C107.382 3.27138 107.788 2.96711 108.166 2.78289C108.504 2.6187 109.098 2.43319 109.486 2.37059C110.023 2.28418 110.357 2.28507 110.875 2.37426C111.25 2.43884 111.781 2.59459 112.054 2.72029C112.326 2.84608 112.713 3.11473 112.913 3.31741C113.113 3.52009 113.33 3.81642 113.396 3.97584C113.462 4.13537 113.551 4.26582 113.593 4.26582C113.636 4.26582 114.088 4.10561 114.598 3.90977C115.108 3.71394 115.57 3.51146 115.624 3.45967C115.688 3.39826 115.622 3.17584 115.436 2.82029C115.279 2.52049 114.923 2.0692 114.644 1.81751C114.365 1.56573 113.829 1.21166 113.453 1.03061C113.076 0.849555 112.451 0.635666 112.064 0.555408C111.676 0.47515 111.091 0.391222 110.764 0.368801C110.437 0.34648 109.834 0.363047 109.425 0.405507ZM55.9524 0.53884C55.9524 0.562451 56.8676 1.86831 57.9861 3.44063C59.1196 5.03418 60.0198 6.3943 60.0198 6.51354C60.0198 6.6313 59.9082 7.49479 59.7718 8.43249C59.6354 9.37019 59.5238 10.2226 59.5238 10.3266C59.5238 10.5016 59.6082 10.5158 60.6502 10.5158H61.7766L62.0562 8.45729L62.3359 6.39876L65.268 3.44737L68.1999 0.495983H66.8142H65.4284L63.4161 2.50491C62.1851 3.73378 61.3758 4.47128 61.3318 4.40422C61.2923 4.3439 60.6572 3.44152 59.9206 2.39896L58.5813 0.503324L57.2669 0.499654C56.5438 0.49767 55.9524 0.515328 55.9524 0.53884ZM68.9026 0.719198C68.8753 0.841916 68.5619 3.02356 68.2062 5.56731C67.8505 8.11096 67.5595 10.2649 67.5595 10.354C67.5595 10.4938 67.7078 10.5158 68.6508 10.5158C69.251 10.5158 69.7424 10.5046 69.7427 10.491C69.7431 10.4774 69.962 8.91166 70.2294 7.01166C70.4966 5.11166 70.7385 3.53388 70.7669 3.50561C70.7951 3.47723 71.6084 4.5184 72.5741 5.8193C73.5397 7.12009 74.715 8.70739 75.1857 9.34648L76.0417 10.5086L77.0475 10.5122L78.0533 10.5158L78.111 10.1934C78.1428 10.0161 78.4602 7.79261 78.8165 5.25243C79.1728 2.71215 79.4643 0.602829 79.4643 0.564932C79.4643 0.527035 78.9762 0.495983 78.3797 0.495983C77.4317 0.495983 77.2889 0.517908 77.2455 0.669594C77.2183 0.76513 77.0119 2.20481 76.787 3.869C76.5621 5.53319 76.347 6.97128 76.3091 7.06473C76.2571 7.19271 75.6259 6.40184 73.7599 3.87168L71.2798 0.508682L70.116 0.502333C68.9875 0.496182 68.9507 0.502729 68.9026 0.719198ZM81.0102 5.28269C80.6423 7.91543 80.3176 10.1698 80.2888 10.2926L80.2364 10.5158H85.1083C87.7878 10.5158 89.9805 10.4823 89.9809 10.4414C89.9813 10.4005 90.0268 10.0768 90.082 9.72217C90.1372 9.36751 90.2074 8.95452 90.238 8.80451L90.2935 8.5317H86.5654C83.2556 8.5317 82.8373 8.51434 82.8373 8.37713C82.8373 8.29202 82.8835 7.90144 82.9402 7.50908C82.9967 7.11662 83.0645 6.69519 83.0909 6.57237L83.1387 6.34916H86.4481H89.7576L89.8689 5.60104C89.9301 5.18963 89.9802 4.76553 89.9802 4.65858C89.9802 4.4695 89.8913 4.46424 86.7064 4.46424C83.6547 4.46424 83.4325 4.45243 83.4324 4.29063C83.4323 4.19509 83.4836 3.74926 83.5465 3.29975L83.6607 2.48249L87.3901 2.4565L91.1194 2.43051L91.2368 1.63686C91.3013 1.20035 91.3575 0.76513 91.3616 0.669594C91.3686 0.506499 91.075 0.495983 86.5242 0.495983H81.6795L81.0102 5.28269ZM92.5244 5.27624C92.1577 7.91245 91.8359 10.1713 91.8091 10.2958L91.7605 10.5222L92.9243 10.4942L94.088 10.4662L94.3296 8.70531L94.571 6.9444L96.219 6.94569L97.8671 6.94688L98.7913 8.7314L99.7156 10.5158H101.006H102.296L102.005 9.99499C101.845 9.70848 101.39 8.87961 100.996 8.15303C100.601 7.42634 100.293 6.82118 100.312 6.80799C100.332 6.79489 100.645 6.64063 101.009 6.46503C101.447 6.25422 101.835 5.96612 102.155 5.61582C102.467 5.27525 102.7 4.89965 102.808 4.56523C102.901 4.27892 102.976 3.78983 102.976 3.47842C102.976 3.16702 102.902 2.6938 102.811 2.42684C102.707 2.12207 102.474 1.77009 102.185 1.4809C101.897 1.19311 101.503 0.932194 101.135 0.785071C100.558 0.554813 100.467 0.549059 96.8684 0.51642L93.1911 0.483186L92.5244 5.27624ZM116.002 0.818404C116.133 0.995686 117.074 2.31235 118.094 3.7443L119.949 6.34777L119.696 8.20858C119.556 9.23199 119.419 10.1713 119.391 10.2958L119.34 10.5222L120.508 10.4942L121.676 10.4662L121.955 8.43904L122.234 6.41186L125.117 3.45392L128 0.495983H126.609H125.218L123.309 2.48011C122.259 3.57138 121.368 4.46424 121.33 4.46424C121.292 4.46424 120.626 3.57138 119.851 2.48011L118.441 0.495983H117.102H115.764L116.002 0.818404ZM100.068 2.60561C100.242 2.69965 100.454 2.87604 100.54 2.99767C100.625 3.1192 100.694 3.39846 100.694 3.61831C100.694 3.83805 100.61 4.15531 100.507 4.32336C100.405 4.49142 100.148 4.71463 99.9373 4.8194C99.5973 4.98815 99.2841 5.01324 97.192 5.03973L94.8304 5.06959L94.8833 4.74211C94.9124 4.56195 94.9832 4.05749 95.0407 3.62098C95.0982 3.18448 95.1681 2.72267 95.1959 2.59479L95.2465 2.36215L97.4993 2.39836C99.3963 2.42882 99.802 2.46156 100.068 2.60561ZM47.2486 12.6463C46.963 12.7268 46.55 12.9114 46.3309 13.0564C46.1117 13.2014 45.8335 13.48 45.7128 13.6753C45.559 13.9242 45.4932 14.1871 45.4932 14.5524C45.4932 14.9252 45.5518 15.1527 45.6983 15.349C45.8111 15.5 46.0997 15.7243 46.3396 15.8472C46.5795 15.9701 47.1553 16.141 47.619 16.2271C48.0828 16.3133 48.7871 16.4507 49.184 16.5325C49.7497 16.6491 49.9408 16.7346 50.0673 16.9276C50.2186 17.1587 50.2163 17.1906 50.03 17.4411C49.898 17.6184 49.655 17.756 49.3072 17.8501C48.8933 17.9623 48.6328 17.9704 48.0667 17.8888C47.6725 17.832 47.1072 17.6744 46.8104 17.5384C46.5136 17.4026 46.1129 17.1528 45.9199 16.9834L45.5691 16.6754L45.0869 17.1651L44.6046 17.6547L44.8469 17.9141C44.9803 18.0569 45.2714 18.2807 45.494 18.4118C45.7167 18.5427 46.1631 18.7431 46.4861 18.8571C46.871 18.993 47.4322 19.0829 48.1151 19.1181C48.9016 19.1586 49.3127 19.1317 49.7935 19.0083C50.1437 18.9183 50.5799 18.7522 50.7629 18.6391C50.9458 18.526 51.2156 18.2761 51.3623 18.0838C51.5701 17.8113 51.6365 17.6 51.6632 17.1259C51.6898 16.6507 51.6546 16.4498 51.5019 16.2068C51.3876 16.025 51.0867 15.7887 50.7773 15.6381C50.4408 15.4744 49.7963 15.3062 49.0079 15.1765C48.3259 15.0643 47.6224 14.926 47.4446 14.8692C47.267 14.8124 47.0756 14.6801 47.0195 14.5753C46.9513 14.4479 46.9503 14.3238 47.0166 14.2001C47.0709 14.0985 47.2622 13.9533 47.4417 13.8776C47.6279 13.7991 48.0872 13.7425 48.5119 13.7458C48.9211 13.749 49.4425 13.8056 49.6704 13.8717C49.8984 13.9377 50.3171 14.1481 50.6007 14.3389L51.1165 14.6861L51.59 14.2432C51.9681 13.8894 52.0405 13.7723 51.9494 13.661C51.8866 13.5844 51.6748 13.4033 51.4787 13.2588C51.2824 13.1141 50.8583 12.9025 50.5362 12.7885C50.1235 12.6424 49.6279 12.5692 48.8591 12.5405C48.0889 12.5119 47.6151 12.543 47.2486 12.6463ZM62.8 12.659C62.5013 12.7392 62.0772 12.9104 61.8575 13.0393C61.638 13.1682 61.2666 13.4675 61.0322 13.7046C60.7978 13.9416 60.4855 14.3814 60.3382 14.6818C60.1145 15.138 60.0705 15.3589 60.0716 16.0218C60.0727 16.6472 60.1214 16.9146 60.3017 17.2833C60.4274 17.5406 60.7688 17.9691 61.0601 18.2354C61.4583 18.5994 61.7648 18.7757 62.2951 18.9463C62.8944 19.139 63.1472 19.166 63.9767 19.126C64.7973 19.0866 65.0557 19.0309 65.5987 18.7768C65.9541 18.6106 66.4285 18.3085 66.6532 18.1055C66.8778 17.9026 67.2009 17.4535 67.3711 17.1077C67.5805 16.6825 67.6968 16.2763 67.7304 15.8535C67.7577 15.5096 67.7311 15.0469 67.671 14.8254C67.6111 14.6039 67.4206 14.2092 67.2477 13.9481C67.0748 13.6871 66.7059 13.3232 66.428 13.1395C66.15 12.9559 65.6565 12.7369 65.3313 12.6527C65.0061 12.5687 64.4258 12.5029 64.0417 12.5065C63.6575 12.5101 63.0988 12.5787 62.8 12.659ZM85.4167 12.6416C85.1711 12.7098 84.8363 12.8357 84.6726 12.9215C84.5089 13.0073 84.2551 13.2042 84.1085 13.3592C83.9619 13.514 83.7945 13.7665 83.7365 13.9201C83.6785 14.0737 83.631 14.3939 83.631 14.6317C83.631 14.9537 83.6974 15.1431 83.8915 15.3737C84.0347 15.5439 84.3137 15.7645 84.5115 15.8638C84.7092 15.9631 85.0942 16.0943 85.3671 16.1553C85.6399 16.2163 86.2842 16.3368 86.7988 16.423C87.3135 16.5093 87.8269 16.6283 87.9397 16.6877C88.0526 16.747 88.1777 16.8447 88.2178 16.9047C88.2578 16.9647 88.2913 17.1149 88.2922 17.2385C88.2932 17.3857 88.1846 17.5295 87.9778 17.6553C87.8041 17.761 87.4225 17.8773 87.13 17.9138C86.825 17.9519 86.3353 17.9293 85.9825 17.8609C85.644 17.7952 85.183 17.6609 84.9581 17.5625C84.7331 17.4639 84.362 17.2143 84.1333 17.0078L83.7175 16.6321L83.2074 17.1421L82.6974 17.6521L82.9106 17.8791C83.0279 18.0039 83.3625 18.2507 83.6543 18.4275C83.9459 18.6043 84.5598 18.8439 85.0183 18.9599C85.6922 19.1302 86.0531 19.1622 86.8993 19.1262C87.6969 19.0924 88.0646 19.0292 88.4425 18.861C88.7153 18.7395 89.0669 18.5197 89.2238 18.3726C89.3808 18.2254 89.5919 17.9265 89.6929 17.7083C89.794 17.49 89.8776 17.1641 89.8788 16.9841C89.88 16.8041 89.814 16.5273 89.7322 16.3692C89.6505 16.2111 89.4384 15.9717 89.261 15.8374C89.0836 15.7029 88.693 15.5236 88.3929 15.4387C88.0928 15.3538 87.4008 15.2126 86.8552 15.1249C86.3095 15.0371 85.718 14.9204 85.5407 14.8657C85.3179 14.7971 85.1982 14.6867 85.1536 14.509C85.1031 14.3079 85.1451 14.2034 85.3457 14.0308C85.4969 13.9007 85.809 13.7816 86.1049 13.7409C86.3811 13.7029 86.8406 13.7039 87.126 13.7432C87.4113 13.7824 87.8243 13.8776 88.0436 13.9548C88.263 14.032 88.6105 14.2299 88.8159 14.3946L89.1893 14.694L89.4607 14.4996C89.61 14.3926 89.8404 14.1891 89.9726 14.0474L90.2132 13.7896L89.9924 13.5546C89.8709 13.4253 89.5579 13.2033 89.2968 13.0613C89.0357 12.9191 88.5358 12.7354 88.1858 12.6528C87.8359 12.5704 87.1701 12.5062 86.7064 12.5103C86.2426 12.5143 85.6622 12.5735 85.4167 12.6416ZM53.227 12.7232C53.2047 12.7914 53.0052 14.1641 52.7836 15.7738C52.562 17.3834 52.3808 18.7804 52.3809 18.8783C52.381 19.0358 52.4639 19.0529 53.1002 19.0271L53.8194 18.998L53.9683 17.9067L54.1171 16.8154L56.002 16.7655C57.5854 16.7237 57.9475 16.6857 58.2659 16.5277C58.4744 16.4244 58.782 16.2026 58.9497 16.035C59.1174 15.8673 59.3151 15.5852 59.3892 15.4079C59.4632 15.2307 59.5238 14.8596 59.5238 14.5833C59.5238 14.307 59.4635 13.9366 59.3898 13.7601C59.3161 13.5837 59.0941 13.2974 58.8964 13.1239C58.6988 12.9503 58.3685 12.7616 58.1624 12.7043C57.9517 12.6458 56.7985 12.6001 55.5277 12.5998C53.8069 12.5993 53.2579 12.6287 53.227 12.7232ZM69.1467 12.624C69.1467 12.6376 68.946 14.0773 68.7008 15.8234C68.4556 17.5694 68.2547 19.0092 68.2544 19.0228C68.2542 19.0364 68.5836 19.0476 68.9866 19.0476H69.7192L69.8345 18.2291C69.8979 17.7789 69.975 17.2656 70.0058 17.0882L70.0618 16.7658H71.1232H72.1846L72.7739 17.9051L73.3631 19.0444L74.1898 19.046C74.6445 19.0469 75.0017 19.0128 74.9834 18.9704C74.9653 18.9279 74.6937 18.4191 74.38 17.8395C74.0662 17.2601 73.8121 16.748 73.8154 16.7014C73.8186 16.655 74.0518 16.504 74.3336 16.3659C74.6561 16.2079 74.9523 15.9637 75.1324 15.7075C75.3055 15.4613 75.4388 15.1216 75.4695 14.8487C75.4975 14.6004 75.4901 14.2356 75.4531 14.0379C75.4155 13.8376 75.2324 13.5091 75.0395 13.2955C74.8308 13.0643 74.511 12.8502 74.2337 12.7558C73.8668 12.6307 73.308 12.5992 71.4605 12.5992C70.188 12.5992 69.1468 12.6104 69.1467 12.624ZM76.155 12.9712C76.1211 13.1758 76.093 13.4436 76.0924 13.5664C76.0913 13.7869 76.1077 13.7896 77.4247 13.7896C78.1581 13.7896 78.7794 13.824 78.8054 13.866C78.8312 13.908 78.7016 15.0129 78.517 16.3214C78.3324 17.6298 78.18 18.7785 78.1781 18.874C78.1751 19.0238 78.2739 19.0476 78.8993 19.0476H79.6239L79.9494 16.6418C80.1285 15.3187 80.2983 14.1357 80.3268 14.0128C80.3776 13.7941 80.4072 13.7896 81.8063 13.7896C83.2205 13.7896 83.2341 13.7876 83.2352 13.5664C83.2358 13.4436 83.264 13.1758 83.2978 12.9712L83.3593 12.5992H79.7879H76.2165L76.155 12.9712ZM57.5931 13.9337C57.8055 14.0224 57.9782 14.184 58.0432 14.3548C58.1249 14.5699 58.1135 14.7053 57.9919 14.9603C57.8946 15.1642 57.7054 15.343 57.4923 15.432C57.2479 15.5341 56.7447 15.5753 55.7435 15.5753H54.3377L54.4055 14.8278C54.4428 14.4166 54.4983 14.0148 54.529 13.935C54.5741 13.8173 54.8385 13.7896 55.9166 13.7896C56.8563 13.7896 57.3499 13.832 57.5931 13.9337ZM64.891 13.9025C65.0764 13.9646 65.3733 14.1232 65.5507 14.2549C65.7281 14.3866 65.9363 14.6163 66.0134 14.7654C66.0906 14.9145 66.1851 15.2042 66.2235 15.4091C66.2642 15.6257 66.2428 15.9626 66.1725 16.2136C66.1059 16.4511 65.9141 16.8123 65.7461 17.0161C65.5781 17.2199 65.2143 17.4921 64.9376 17.6209C64.5707 17.7917 64.258 17.8554 63.7826 17.8561C63.267 17.8569 63.0183 17.8001 62.5922 17.5843C62.2109 17.3911 61.9872 17.1955 61.8264 16.9146C61.639 16.5872 61.6049 16.4015 61.6311 15.8524C61.6571 15.3041 61.7149 15.1129 61.959 14.7654C62.143 14.5039 62.4567 14.2387 62.7858 14.0667C63.2013 13.8498 63.4505 13.7896 63.935 13.7896C64.2753 13.7896 64.7055 13.8404 64.891 13.9025ZM73.5653 13.9337C73.7672 14.018 73.9506 14.1844 74.0079 14.3352C74.0785 14.5207 74.0676 14.6844 73.9691 14.9199C73.8709 15.1551 73.7172 15.2931 73.4222 15.4112C73.1088 15.5366 72.684 15.5753 71.625 15.5753C70.5806 15.5753 70.2386 15.5447 70.2401 15.4513C70.2412 15.3832 70.2863 15.0209 70.3405 14.6463C70.3946 14.2717 70.4634 13.9256 70.4932 13.8774C70.523 13.8291 71.1489 13.7896 71.884 13.7896C72.8279 13.7896 73.3219 13.832 73.5653 13.9337Z" fill="white"/>
<path fill-rule="evenodd" clip-rule="evenodd" d="M9.82142 0.000122581C9.8049 4.08925e-05 9.78837 0 9.77182 0C4.375 0 0 4.35279 0 9.72222C0 15.0917 4.375 19.4444 9.77182 19.4444C9.78837 19.4444 9.8049 19.4444 9.82142 19.4443V0.000122581Z" fill="#CECECE"/>
<path fill-rule="evenodd" clip-rule="evenodd" d="M24.5039 19.4444C29.8779 19.4179 34.2261 15.0753 34.2261 9.72234C34.2261 4.36937 29.8779 0.026817 24.5039 0.000244141V19.4444Z" fill="white"/>
<path d="M24.504 0.00012207V9.86672L17.2465 16.1776C17.2607 16.1936 17.2323 16.1616 17.2465 16.1776C17.2603 16.1934 17.2327 16.1619 17.2465 16.1776C15.1786 18.1052 12.7539 19.4298 9.82141 19.4443V9.71833C9.82141 9.71833 17.6587 2.67857 19.0805 1.66682C20.5023 0.655063 22.4949 0.0100584 24.504 0.00012207Z" fill="url(#paint0_linear)"/>
<defs>
<linearGradient id="paint0_linear" x1="24.5039" y1="9.72222" x2="10.9127" y2="9.72222" gradientUnits="userSpaceOnUse">
<stop stop-color="#AEAEAE"/>
<stop offset="1" stop-color="white"/>
</linearGradient>
</defs>
</svg>
