<svg width="109" height="39" viewBox="0 0 109 39" fill="none" xmlns="http://www.w3.org/2000/svg">
<path fill-rule="evenodd" clip-rule="evenodd" d="M27.0475 2.03993C22.7374 3.15119 19.1429 4.08408 19.0598 4.11302C18.9766 4.14196 18.374 5.06264 17.7207 6.15906L16.533 8.1526H14.1077H11.6822L5.76355 13.8248C0.114828 19.2382 -0.146386 19.5051 0.0389162 19.6754C0.145747 19.7735 2.80842 22.3235 5.9561 25.3421L11.6792 30.8303H14.1181H16.557L17.7241 32.8293C18.6406 34.3992 18.9484 34.8433 19.1577 34.8979C19.3043 34.936 22.9394 35.8747 27.2356 36.9836L35.047 39L35.1579 38.6246C35.219 38.4182 36.1946 34.9374 37.3262 30.8896L39.3834 23.5298L38.1731 21.5437C36.7338 19.1817 36.7337 19.854 38.1737 17.491L39.3843 15.5042L37.2837 7.98738C34.9248 -0.453467 35.055 -0.00696346 34.9567 0.00829534C34.9166 0.0143989 31.3575 0.928664 27.0475 2.03993ZM25.6928 11.6977L22.1833 17.5183L15.1172 17.5454C11.2309 17.5603 8.06735 17.5367 8.08696 17.4928C8.10669 17.449 10.0913 15.4861 12.4971 13.1309L16.8714 8.84861L22.999 7.33273C26.3692 6.49886 29.1436 5.83032 29.1644 5.84694C29.1851 5.86346 27.6229 8.4964 25.6928 11.6977ZM79.1836 8.62615V10.2046H81.1027H83.0218V8.62615V7.04765H81.1027H79.1836V8.62615ZM86.327 9.46801V11.8884H85.2608H84.1946V13.2564V14.6244H85.2608H86.327L86.3278 19.2284C86.3291 26.7229 86.6733 27.3289 90.9915 27.4399L92.724 27.4846V25.9478V24.4111H92.0276C90.2441 24.4111 90.2718 24.4958 90.2718 19.0495V14.6244H91.4979H92.724V13.2564V11.8884H91.4979H90.2718V9.46801V7.04765H88.2994H86.327V9.46801ZM34.4501 25.3058C33.521 28.5179 32.7348 31.145 32.7029 31.1437C32.5973 31.1394 25.7146 19.6262 25.7213 19.4652C25.727 19.3284 32.3267 8.28067 32.6246 7.9092C32.7056 7.80828 33.1952 9.35036 34.4375 13.6183L36.1395 19.4656L34.4501 25.3058ZM70.1493 11.6297C68.9911 11.9375 68.1226 12.5146 67.3308 13.5027L66.9225 14.012V12.9502V11.8884H65.0034H63.0843V19.6756V27.4629H64.9958H66.9074L66.9446 22.5958C66.9876 16.9515 66.9846 16.9698 68.0326 15.9353C69.4779 14.5089 71.9878 14.8313 72.9275 16.5641C73.1558 16.985 73.1602 17.0799 73.1901 22.2275L73.2206 27.4629H75.1401H77.0596L77.0288 21.5961C76.9936 14.9242 77.0203 15.1367 76.0364 13.6749C74.8309 11.884 72.3869 11.0348 70.1493 11.6297ZM47.3057 17.3342C47.3067 23.9079 47.3773 24.4891 48.3453 25.8776C50.1454 28.4596 54.9083 28.598 56.915 26.1266C57.4052 25.5228 57.4335 25.5469 57.4335 26.5684V27.4629H59.2994H61.1652V19.6756V11.8884H59.246H57.3269L57.3236 16.2292C57.3183 23.2822 56.8853 24.348 54.0218 24.3562C51.3957 24.3638 51.1431 23.7033 51.1431 16.8292V11.8884H49.224H47.3048L47.3057 17.3342ZM79.1836 19.6756V27.4629H81.1027H83.0218V19.6756V11.8884H81.1027H79.1836V19.6756ZM93.8968 11.9742C93.8968 12.024 94.9213 14.7361 96.1736 18.0012C100.219 28.55 100.242 29.1483 96.599 29.3317L95.4961 29.3873V31.0033V32.6193L96.8555 32.616C101.947 32.6038 101.718 32.9086 106.101 20.3314C107.649 15.8903 108.948 12.1739 108.987 12.0725C109.054 11.901 108.917 11.8884 106.978 11.8884H104.896L104.466 13.1775C103.245 16.8417 102.18 20.2197 101.947 21.167C101.628 22.4683 101.633 22.4631 101.42 21.7092C101.027 20.3203 100.226 17.9731 99.1456 15.0454L97.9999 11.941L95.9484 11.9124C94.82 11.8967 93.8968 11.9245 93.8968 11.9742ZM25.7304 27.2273C27.6742 30.4533 29.2566 33.1016 29.2469 33.1123C29.2372 33.1229 26.4431 32.4442 23.0379 31.6038L16.8465 30.0759L12.4317 25.7176L8.01713 21.3594L15.1068 21.3605L22.1963 21.3617L25.7304 27.2273Z" fill="white"/>
</svg>
